%TF.GenerationSoftware,KiCad,Pcbnew,7.0.7*%
%TF.CreationDate,2023-12-26T11:08:44+08:00*%
%TF.ProjectId,Dice_Roller_SAMD,44696365-5f52-46f6-9c6c-65725f53414d,rev?*%
%TF.SameCoordinates,Original*%
%TF.FileFunction,Copper,L3,Inr*%
%TF.FilePolarity,Positive*%
%FSLAX46Y46*%
G04 Gerber Fmt 4.6, Leading zero omitted, Abs format (unit mm)*
G04 Created by KiCad (PCBNEW 7.0.7) date 2023-12-26 11:08:44*
%MOMM*%
%LPD*%
G01*
G04 APERTURE LIST*
%TA.AperFunction,ComponentPad*%
%ADD10R,1.700000X1.700000*%
%TD*%
%TA.AperFunction,ComponentPad*%
%ADD11O,1.700000X1.700000*%
%TD*%
%TA.AperFunction,ComponentPad*%
%ADD12C,1.270000*%
%TD*%
%TA.AperFunction,ComponentPad*%
%ADD13O,2.100000X1.000000*%
%TD*%
%TA.AperFunction,ComponentPad*%
%ADD14O,1.600000X1.000000*%
%TD*%
%TA.AperFunction,ViaPad*%
%ADD15C,0.800000*%
%TD*%
G04 APERTURE END LIST*
D10*
%TO.N,/Module/Vib*%
%TO.C,M1*%
X157480000Y-135885000D03*
D11*
%TO.N,GND*%
X157480000Y-138425000D03*
%TD*%
D10*
%TO.N,+3V3*%
%TO.C,J2*%
X165100000Y-109220000D03*
D11*
%TO.N,unconnected-(J2-Pin_2-Pad2)*%
X167640000Y-109220000D03*
%TO.N,GND*%
X170180000Y-109220000D03*
%TO.N,/Module/SCK*%
X172720000Y-109220000D03*
%TO.N,/Module/MISO*%
X175260000Y-109220000D03*
%TO.N,/Module/MOSI*%
X177800000Y-109220000D03*
%TO.N,/Module/TCS*%
X180340000Y-109220000D03*
%TO.N,/Module/RST*%
X182880000Y-109220000D03*
%TO.N,/Module/DC*%
X185420000Y-109220000D03*
%TO.N,unconnected-(J2-Pin_10-Pad10)*%
X187960000Y-109220000D03*
%TO.N,unconnected-(J2-Pin_11-Pad11)*%
X190500000Y-109220000D03*
%TD*%
D12*
%TO.N,GND*%
%TO.C,X1*%
X200660000Y-145320000D03*
%TO.N,VBAT*%
X200660000Y-143319998D03*
%TD*%
D10*
%TO.N,+3V3*%
%TO.C,J3*%
X200660000Y-152400000D03*
D11*
%TO.N,GND*%
X200660000Y-154940000D03*
%TO.N,/SAMD_51/SWDIO*%
X200660000Y-157480000D03*
%TO.N,/SAMD_51/SWCLK*%
X200660000Y-160020000D03*
%TO.N,/SAMD_51/~{RESET}*%
X200660000Y-162560000D03*
%TD*%
D13*
%TO.N,GND*%
%TO.C,J1*%
X160020000Y-152400000D03*
D14*
X155840000Y-152400000D03*
D13*
X160020000Y-161040000D03*
D14*
X155840000Y-161040000D03*
%TD*%
D15*
%TO.N,GND*%
X155430000Y-163500000D03*
X161798000Y-165354000D03*
X178816000Y-133604000D03*
X192278000Y-151638000D03*
X198120000Y-127762000D03*
X172720000Y-122174000D03*
X172466000Y-142240000D03*
X192278000Y-148844000D03*
X154178000Y-137160000D03*
X193040000Y-141224000D03*
X156718000Y-146050000D03*
X181864000Y-155117800D03*
X177042299Y-150372299D03*
X160625000Y-153420498D03*
X198120000Y-120142000D03*
X185166000Y-147714000D03*
X164846000Y-158496000D03*
X166878000Y-128778000D03*
X155956000Y-120142000D03*
X160625000Y-160070000D03*
X162814000Y-149860000D03*
X165354000Y-145796000D03*
X164846000Y-154686000D03*
X155956000Y-127762000D03*
X198120000Y-138176000D03*
X173228000Y-160071000D03*
X186436000Y-137160000D03*
X179578000Y-139192000D03*
X194816000Y-157480000D03*
X193040000Y-144780000D03*
X172466000Y-152146000D03*
X167894000Y-122478200D03*
X200660000Y-132588000D03*
%TO.N,+3V3*%
X168402000Y-153162000D03*
X178816000Y-151063000D03*
X164338000Y-135636000D03*
X185166000Y-165354000D03*
X195834000Y-140462000D03*
X167894000Y-162052000D03*
X162814000Y-146812000D03*
X196070000Y-123660000D03*
X178816000Y-126492000D03*
X159530000Y-123660000D03*
X185928000Y-146557500D03*
X165862000Y-124028200D03*
X159530000Y-116040000D03*
X165608000Y-142240000D03*
X191516000Y-162306000D03*
X169916000Y-124028200D03*
X183642000Y-129540000D03*
X171450000Y-142240000D03*
X180848000Y-142494000D03*
X157988000Y-142240000D03*
X166878000Y-132080000D03*
X196070000Y-116040000D03*
%TO.N,VBUS*%
X169383482Y-149317482D03*
X197358000Y-150088500D03*
%TO.N,/Module/LED1*%
X179827701Y-147823701D03*
X171704000Y-154686000D03*
%TO.N,/Module/LED2*%
X181356000Y-146558000D03*
X173990000Y-154686000D03*
%TO.N,/Module/Pht*%
X185147000Y-158459000D03*
X182880000Y-151384000D03*
%TO.N,/Module/SCK*%
X170640500Y-140468473D03*
%TO.N,/Module/MISO*%
X176022000Y-142748000D03*
X176022000Y-121666000D03*
%TO.N,/Module/MOSI*%
X177800000Y-119888000D03*
X177038000Y-142783500D03*
%TO.N,/Module/TCS*%
X171704000Y-139954000D03*
%TO.N,/Module/RST*%
X182880000Y-113538000D03*
X175006000Y-142748000D03*
%TO.N,/Module/DC*%
X173990000Y-142748000D03*
%TO.N,/SAMD_51/SWDIO*%
X178789000Y-157046921D03*
X177038000Y-162560000D03*
%TO.N,/SAMD_51/SWCLK*%
X177038000Y-161544000D03*
X178064500Y-156210000D03*
%TO.N,/Module/S1*%
X182118000Y-143510000D03*
X157480000Y-120142000D03*
%TO.N,/Module/S2*%
X181864000Y-144526000D03*
X157543000Y-127762000D03*
%TO.N,/SAMD_51/V_DIV*%
X170942000Y-146558000D03*
X178236674Y-146486674D03*
%TO.N,/SAMD_51/FLASH_D3*%
X181864000Y-132334000D03*
X179827701Y-135123701D03*
%TO.N,/SAMD_51/FLASH_SCK*%
X178816000Y-137160000D03*
X182067500Y-133604000D03*
%TD*%
%TA.AperFunction,Conductor*%
%TO.N,+3V3*%
G36*
X201873534Y-106191980D02*
G01*
X201919565Y-106244544D01*
X201931038Y-106295603D01*
X202436949Y-166498958D01*
X202417828Y-166566161D01*
X202365410Y-166612358D01*
X202312953Y-166624000D01*
X153286524Y-166624000D01*
X153219485Y-166604315D01*
X153173730Y-166551511D01*
X153162525Y-166499477D01*
X153167358Y-165354000D01*
X160884496Y-165354000D01*
X160904458Y-165543928D01*
X160904459Y-165543931D01*
X160963470Y-165725549D01*
X160963473Y-165725556D01*
X161058960Y-165890944D01*
X161186747Y-166032866D01*
X161341248Y-166145118D01*
X161515712Y-166222794D01*
X161702513Y-166262500D01*
X161893487Y-166262500D01*
X162080288Y-166222794D01*
X162254752Y-166145118D01*
X162409253Y-166032866D01*
X162537040Y-165890944D01*
X162632527Y-165725556D01*
X162691542Y-165543928D01*
X162711504Y-165354000D01*
X162691542Y-165164072D01*
X162632527Y-164982444D01*
X162537040Y-164817056D01*
X162409253Y-164675134D01*
X162254752Y-164562882D01*
X162080288Y-164485206D01*
X162080286Y-164485205D01*
X161893487Y-164445500D01*
X161702513Y-164445500D01*
X161515714Y-164485205D01*
X161341246Y-164562883D01*
X161186745Y-164675135D01*
X161058959Y-164817057D01*
X160963473Y-164982443D01*
X160963470Y-164982450D01*
X160925276Y-165100000D01*
X160904458Y-165164072D01*
X160884496Y-165354000D01*
X153167358Y-165354000D01*
X153175181Y-163500000D01*
X154516496Y-163500000D01*
X154536458Y-163689928D01*
X154536459Y-163689931D01*
X154595470Y-163871549D01*
X154595473Y-163871556D01*
X154690960Y-164036944D01*
X154818747Y-164178866D01*
X154973248Y-164291118D01*
X155147712Y-164368794D01*
X155334513Y-164408500D01*
X155525487Y-164408500D01*
X155712288Y-164368794D01*
X155886752Y-164291118D01*
X156041253Y-164178866D01*
X156169040Y-164036944D01*
X156264527Y-163871556D01*
X156323542Y-163689928D01*
X156343504Y-163500000D01*
X156323542Y-163310072D01*
X156264527Y-163128444D01*
X156169040Y-162963056D01*
X156041253Y-162821134D01*
X155886752Y-162708882D01*
X155712288Y-162631206D01*
X155712286Y-162631205D01*
X155525487Y-162591500D01*
X155334513Y-162591500D01*
X155147714Y-162631205D01*
X154973246Y-162708883D01*
X154818745Y-162821135D01*
X154690959Y-162963057D01*
X154595473Y-163128443D01*
X154595470Y-163128450D01*
X154559594Y-163238866D01*
X154536458Y-163310072D01*
X154516496Y-163500000D01*
X153175181Y-163500000D01*
X153179147Y-162560000D01*
X176124496Y-162560000D01*
X176144458Y-162749928D01*
X176144459Y-162749931D01*
X176203470Y-162931549D01*
X176203473Y-162931556D01*
X176298960Y-163096944D01*
X176426747Y-163238866D01*
X176581248Y-163351118D01*
X176755712Y-163428794D01*
X176942513Y-163468500D01*
X177133487Y-163468500D01*
X177320288Y-163428794D01*
X177494752Y-163351118D01*
X177649253Y-163238866D01*
X177777040Y-163096944D01*
X177872527Y-162931556D01*
X177931542Y-162749928D01*
X177951503Y-162560005D01*
X199296844Y-162560005D01*
X199315434Y-162784359D01*
X199315436Y-162784371D01*
X199370703Y-163002614D01*
X199461140Y-163208792D01*
X199584276Y-163397265D01*
X199584284Y-163397276D01*
X199678849Y-163499999D01*
X199736760Y-163562906D01*
X199914424Y-163701189D01*
X199914425Y-163701189D01*
X199914427Y-163701191D01*
X200041135Y-163769761D01*
X200112426Y-163808342D01*
X200325365Y-163881444D01*
X200547431Y-163918500D01*
X200772569Y-163918500D01*
X200994635Y-163881444D01*
X201207574Y-163808342D01*
X201405576Y-163701189D01*
X201583240Y-163562906D01*
X201735722Y-163397268D01*
X201858860Y-163208791D01*
X201949296Y-163002616D01*
X202004564Y-162784368D01*
X202023156Y-162560000D01*
X202004564Y-162335632D01*
X201949296Y-162117384D01*
X201858860Y-161911209D01*
X201735722Y-161722732D01*
X201735719Y-161722729D01*
X201735715Y-161722723D01*
X201583243Y-161557097D01*
X201583238Y-161557092D01*
X201405577Y-161418812D01*
X201405578Y-161418812D01*
X201405576Y-161418811D01*
X201369070Y-161399055D01*
X201319479Y-161349836D01*
X201304371Y-161281619D01*
X201328541Y-161216064D01*
X201369070Y-161180945D01*
X201384767Y-161172450D01*
X201405576Y-161161189D01*
X201583240Y-161022906D01*
X201728481Y-160865134D01*
X201735715Y-160857276D01*
X201735716Y-160857274D01*
X201735722Y-160857268D01*
X201858860Y-160668791D01*
X201949296Y-160462616D01*
X202004564Y-160244368D01*
X202015729Y-160109631D01*
X202023156Y-160020005D01*
X202023156Y-160019994D01*
X202004565Y-159795640D01*
X202004563Y-159795628D01*
X201980206Y-159699444D01*
X201949296Y-159577384D01*
X201858860Y-159371209D01*
X201854460Y-159364475D01*
X201748444Y-159202205D01*
X201735722Y-159182732D01*
X201735719Y-159182729D01*
X201735715Y-159182723D01*
X201583243Y-159017097D01*
X201583238Y-159017092D01*
X201405577Y-158878812D01*
X201405578Y-158878812D01*
X201405576Y-158878811D01*
X201369070Y-158859055D01*
X201319479Y-158809836D01*
X201304371Y-158741619D01*
X201328541Y-158676064D01*
X201369070Y-158640945D01*
X201369084Y-158640936D01*
X201405576Y-158621189D01*
X201583240Y-158482906D01*
X201735722Y-158317268D01*
X201858860Y-158128791D01*
X201949296Y-157922616D01*
X202004564Y-157704368D01*
X202007418Y-157669928D01*
X202023156Y-157480005D01*
X202023156Y-157479994D01*
X202004565Y-157255640D01*
X202004563Y-157255628D01*
X201967291Y-157108444D01*
X201949296Y-157037384D01*
X201858860Y-156831209D01*
X201735722Y-156642732D01*
X201735719Y-156642729D01*
X201735715Y-156642723D01*
X201583243Y-156477097D01*
X201583238Y-156477092D01*
X201464797Y-156384905D01*
X201405576Y-156338811D01*
X201369070Y-156319055D01*
X201319479Y-156269836D01*
X201304371Y-156201619D01*
X201328541Y-156136064D01*
X201369070Y-156100945D01*
X201369084Y-156100936D01*
X201405576Y-156081189D01*
X201583240Y-155942906D01*
X201735722Y-155777268D01*
X201858860Y-155588791D01*
X201949296Y-155382616D01*
X202004564Y-155164368D01*
X202013415Y-155057556D01*
X202023156Y-154940005D01*
X202023156Y-154939994D01*
X202004565Y-154715640D01*
X202004563Y-154715628D01*
X201949296Y-154497385D01*
X201948720Y-154496072D01*
X201858860Y-154291209D01*
X201831287Y-154249006D01*
X201770268Y-154155609D01*
X201735722Y-154102732D01*
X201584291Y-153938236D01*
X201553370Y-153875584D01*
X201561230Y-153806158D01*
X201605376Y-153752002D01*
X201632189Y-153738073D01*
X201752086Y-153693354D01*
X201752093Y-153693350D01*
X201867187Y-153607190D01*
X201867190Y-153607187D01*
X201953350Y-153492093D01*
X201953354Y-153492086D01*
X202003596Y-153357379D01*
X202003598Y-153357372D01*
X202009999Y-153297844D01*
X202010000Y-153297827D01*
X202010000Y-152650000D01*
X201273347Y-152650000D01*
X201206308Y-152630315D01*
X201160553Y-152577511D01*
X201150609Y-152508353D01*
X201154369Y-152491067D01*
X201160000Y-152471888D01*
X201160000Y-152328111D01*
X201154369Y-152308933D01*
X201154370Y-152239064D01*
X201192145Y-152180286D01*
X201255701Y-152151262D01*
X201273347Y-152150000D01*
X202010000Y-152150000D01*
X202010000Y-151502172D01*
X202009999Y-151502155D01*
X202003598Y-151442627D01*
X202003596Y-151442620D01*
X201953354Y-151307913D01*
X201953350Y-151307906D01*
X201867190Y-151192812D01*
X201867187Y-151192809D01*
X201752093Y-151106649D01*
X201752086Y-151106645D01*
X201617379Y-151056403D01*
X201617372Y-151056401D01*
X201557844Y-151050000D01*
X200910000Y-151050000D01*
X200910000Y-151787698D01*
X200890315Y-151854737D01*
X200837511Y-151900492D01*
X200768355Y-151910436D01*
X200695766Y-151900000D01*
X200695763Y-151900000D01*
X200624237Y-151900000D01*
X200624233Y-151900000D01*
X200551645Y-151910436D01*
X200482487Y-151900492D01*
X200429684Y-151854736D01*
X200410000Y-151787698D01*
X200410000Y-151050000D01*
X199762155Y-151050000D01*
X199702627Y-151056401D01*
X199702620Y-151056403D01*
X199567913Y-151106645D01*
X199567906Y-151106649D01*
X199452812Y-151192809D01*
X199452809Y-151192812D01*
X199366649Y-151307906D01*
X199366645Y-151307913D01*
X199316403Y-151442620D01*
X199316401Y-151442627D01*
X199310000Y-151502155D01*
X199310000Y-152150000D01*
X200046653Y-152150000D01*
X200113692Y-152169685D01*
X200159447Y-152222489D01*
X200169391Y-152291647D01*
X200165631Y-152308933D01*
X200160000Y-152328111D01*
X200160000Y-152471888D01*
X200165631Y-152491067D01*
X200165630Y-152560936D01*
X200127855Y-152619714D01*
X200064299Y-152648738D01*
X200046653Y-152650000D01*
X199310000Y-152650000D01*
X199310000Y-153297844D01*
X199316401Y-153357372D01*
X199316403Y-153357379D01*
X199366645Y-153492086D01*
X199366649Y-153492093D01*
X199452809Y-153607187D01*
X199452812Y-153607190D01*
X199567906Y-153693350D01*
X199567913Y-153693354D01*
X199687810Y-153738073D01*
X199743744Y-153779944D01*
X199768161Y-153845409D01*
X199753309Y-153913682D01*
X199735706Y-153938238D01*
X199584284Y-154102723D01*
X199584276Y-154102734D01*
X199461140Y-154291207D01*
X199370703Y-154497385D01*
X199315436Y-154715628D01*
X199315434Y-154715640D01*
X199296844Y-154939994D01*
X199296844Y-154940005D01*
X199315434Y-155164359D01*
X199315436Y-155164371D01*
X199370703Y-155382614D01*
X199461140Y-155588792D01*
X199584276Y-155777265D01*
X199584284Y-155777276D01*
X199736756Y-155942902D01*
X199736760Y-155942906D01*
X199914424Y-156081189D01*
X199914429Y-156081191D01*
X199914431Y-156081193D01*
X199950930Y-156100946D01*
X200000520Y-156150165D01*
X200015628Y-156218382D01*
X199991457Y-156283937D01*
X199950930Y-156319054D01*
X199914431Y-156338806D01*
X199914422Y-156338812D01*
X199736761Y-156477092D01*
X199736756Y-156477097D01*
X199584284Y-156642723D01*
X199584276Y-156642734D01*
X199461140Y-156831207D01*
X199370703Y-157037385D01*
X199315436Y-157255628D01*
X199315434Y-157255640D01*
X199296844Y-157479994D01*
X199296844Y-157480005D01*
X199315434Y-157704359D01*
X199315436Y-157704371D01*
X199370703Y-157922614D01*
X199461140Y-158128792D01*
X199584276Y-158317265D01*
X199584284Y-158317276D01*
X199736756Y-158482902D01*
X199736760Y-158482906D01*
X199914424Y-158621189D01*
X199914429Y-158621191D01*
X199914431Y-158621193D01*
X199950930Y-158640946D01*
X200000520Y-158690165D01*
X200015628Y-158758382D01*
X199991457Y-158823937D01*
X199950930Y-158859054D01*
X199914431Y-158878806D01*
X199914422Y-158878812D01*
X199736761Y-159017092D01*
X199736756Y-159017097D01*
X199584284Y-159182723D01*
X199584276Y-159182734D01*
X199461140Y-159371207D01*
X199370703Y-159577385D01*
X199315436Y-159795628D01*
X199315434Y-159795640D01*
X199296844Y-160019994D01*
X199296844Y-160020005D01*
X199315434Y-160244359D01*
X199315436Y-160244371D01*
X199370703Y-160462614D01*
X199461140Y-160668792D01*
X199584276Y-160857265D01*
X199584284Y-160857276D01*
X199736756Y-161022902D01*
X199736760Y-161022906D01*
X199914424Y-161161189D01*
X199914429Y-161161191D01*
X199914431Y-161161193D01*
X199950930Y-161180946D01*
X200000520Y-161230165D01*
X200015628Y-161298382D01*
X199991457Y-161363937D01*
X199950930Y-161399054D01*
X199914431Y-161418806D01*
X199914422Y-161418812D01*
X199736761Y-161557092D01*
X199736756Y-161557097D01*
X199584284Y-161722723D01*
X199584276Y-161722734D01*
X199461140Y-161911207D01*
X199370703Y-162117385D01*
X199315436Y-162335628D01*
X199315434Y-162335640D01*
X199296844Y-162559994D01*
X199296844Y-162560005D01*
X177951503Y-162560005D01*
X177951504Y-162560000D01*
X177931542Y-162370072D01*
X177872527Y-162188444D01*
X177829546Y-162113999D01*
X177813073Y-162046099D01*
X177829546Y-161990000D01*
X177872527Y-161915556D01*
X177931542Y-161733928D01*
X177951504Y-161544000D01*
X177931542Y-161354072D01*
X177876495Y-161184658D01*
X177872529Y-161172450D01*
X177872528Y-161172449D01*
X177872527Y-161172444D01*
X177777040Y-161007056D01*
X177649253Y-160865134D01*
X177494752Y-160752882D01*
X177320288Y-160675206D01*
X177320286Y-160675205D01*
X177133487Y-160635500D01*
X176942513Y-160635500D01*
X176755714Y-160675205D01*
X176581246Y-160752883D01*
X176426745Y-160865135D01*
X176298959Y-161007057D01*
X176203473Y-161172443D01*
X176203470Y-161172450D01*
X176158239Y-161311658D01*
X176144458Y-161354072D01*
X176124496Y-161544000D01*
X176144458Y-161733928D01*
X176144459Y-161733931D01*
X176203470Y-161915549D01*
X176203475Y-161915561D01*
X176246453Y-161990001D01*
X176262926Y-162057901D01*
X176246453Y-162113999D01*
X176203475Y-162188438D01*
X176203470Y-162188450D01*
X176144459Y-162370068D01*
X176144458Y-162370072D01*
X176124496Y-162560000D01*
X153179147Y-162560000D01*
X153185561Y-161040000D01*
X154526620Y-161040000D01*
X154546091Y-161237699D01*
X154603760Y-161427808D01*
X154697401Y-161602998D01*
X154697405Y-161603005D01*
X154823431Y-161756568D01*
X154976994Y-161882594D01*
X154977001Y-161882598D01*
X155152191Y-161976239D01*
X155152193Y-161976239D01*
X155152196Y-161976241D01*
X155342299Y-162033908D01*
X155342298Y-162033908D01*
X155379337Y-162037556D01*
X155490453Y-162048500D01*
X155490456Y-162048500D01*
X156189544Y-162048500D01*
X156189547Y-162048500D01*
X156337701Y-162033908D01*
X156527804Y-161976241D01*
X156703004Y-161882595D01*
X156856568Y-161756568D01*
X156982595Y-161603004D01*
X157076241Y-161427804D01*
X157133908Y-161237701D01*
X157153380Y-161040000D01*
X158456620Y-161040000D01*
X158476091Y-161237699D01*
X158533760Y-161427808D01*
X158627401Y-161602998D01*
X158627405Y-161603005D01*
X158753431Y-161756568D01*
X158906994Y-161882594D01*
X158907001Y-161882598D01*
X159082191Y-161976239D01*
X159082193Y-161976239D01*
X159082196Y-161976241D01*
X159272299Y-162033908D01*
X159272298Y-162033908D01*
X159309337Y-162037556D01*
X159420453Y-162048500D01*
X159420456Y-162048500D01*
X160619544Y-162048500D01*
X160619547Y-162048500D01*
X160767701Y-162033908D01*
X160957804Y-161976241D01*
X161133004Y-161882595D01*
X161286568Y-161756568D01*
X161412595Y-161603004D01*
X161506241Y-161427804D01*
X161563908Y-161237701D01*
X161583380Y-161040000D01*
X161563908Y-160842299D01*
X161506241Y-160652196D01*
X161506239Y-160652193D01*
X161506239Y-160652191D01*
X161457805Y-160561578D01*
X161443563Y-160493176D01*
X161457683Y-160447846D01*
X161456885Y-160447491D01*
X161459526Y-160441558D01*
X161459527Y-160441556D01*
X161518542Y-160259928D01*
X161538399Y-160071000D01*
X172314496Y-160071000D01*
X172334458Y-160260928D01*
X172334459Y-160260931D01*
X172393470Y-160442549D01*
X172393473Y-160442556D01*
X172488960Y-160607944D01*
X172616747Y-160749866D01*
X172771248Y-160862118D01*
X172945712Y-160939794D01*
X173132513Y-160979500D01*
X173323487Y-160979500D01*
X173510288Y-160939794D01*
X173684752Y-160862118D01*
X173839253Y-160749866D01*
X173967040Y-160607944D01*
X174062527Y-160442556D01*
X174121542Y-160260928D01*
X174141504Y-160071000D01*
X174121542Y-159881072D01*
X174062527Y-159699444D01*
X173967040Y-159534056D01*
X173839253Y-159392134D01*
X173684752Y-159279882D01*
X173510288Y-159202206D01*
X173510286Y-159202205D01*
X173323487Y-159162500D01*
X173132513Y-159162500D01*
X172945714Y-159202205D01*
X172771246Y-159279883D01*
X172616745Y-159392135D01*
X172488959Y-159534057D01*
X172393473Y-159699443D01*
X172393470Y-159699450D01*
X172334784Y-159880068D01*
X172334458Y-159881072D01*
X172314496Y-160071000D01*
X161538399Y-160071000D01*
X161538504Y-160070000D01*
X161518542Y-159880072D01*
X161459527Y-159698444D01*
X161364040Y-159533056D01*
X161236253Y-159391134D01*
X161081752Y-159278882D01*
X160907288Y-159201206D01*
X160907286Y-159201205D01*
X160720487Y-159161500D01*
X160529513Y-159161500D01*
X160342714Y-159201205D01*
X160168246Y-159278883D01*
X160117484Y-159315764D01*
X160051677Y-159339243D01*
X159983623Y-159323417D01*
X159953977Y-159300084D01*
X159856793Y-159196025D01*
X159732615Y-159120511D01*
X159592668Y-159081300D01*
X159483833Y-159081300D01*
X159483832Y-159081300D01*
X159376019Y-159096118D01*
X159376016Y-159096119D01*
X159242713Y-159154020D01*
X159129974Y-159245740D01*
X159129968Y-159245747D01*
X159046161Y-159364474D01*
X159046161Y-159364475D01*
X158997491Y-159501416D01*
X158997491Y-159501419D01*
X158987573Y-159646416D01*
X158987573Y-159646419D01*
X159017141Y-159788710D01*
X159017142Y-159788713D01*
X159017143Y-159788716D01*
X159020725Y-159795628D01*
X159084007Y-159917758D01*
X159089134Y-159923248D01*
X159120507Y-159985678D01*
X159113147Y-160055159D01*
X159069391Y-160109631D01*
X159056965Y-160117244D01*
X158907001Y-160197401D01*
X158906994Y-160197405D01*
X158753431Y-160323431D01*
X158627405Y-160476994D01*
X158627401Y-160477001D01*
X158533760Y-160652191D01*
X158476091Y-160842300D01*
X158456620Y-161040000D01*
X157153380Y-161040000D01*
X157133908Y-160842299D01*
X157076241Y-160652196D01*
X157076239Y-160652193D01*
X157076239Y-160652191D01*
X156982598Y-160477001D01*
X156982594Y-160476994D01*
X156856568Y-160323431D01*
X156703005Y-160197405D01*
X156702998Y-160197401D01*
X156527808Y-160103760D01*
X156372875Y-160056762D01*
X156337701Y-160046092D01*
X156337699Y-160046091D01*
X156337701Y-160046091D01*
X156223336Y-160034827D01*
X156189547Y-160031500D01*
X155490453Y-160031500D01*
X155453883Y-160035101D01*
X155342300Y-160046091D01*
X155152191Y-160103760D01*
X154977001Y-160197401D01*
X154976994Y-160197405D01*
X154823431Y-160323431D01*
X154697405Y-160476994D01*
X154697401Y-160477001D01*
X154603760Y-160652191D01*
X154546091Y-160842300D01*
X154526620Y-161040000D01*
X153185561Y-161040000D01*
X153196295Y-158496000D01*
X163932496Y-158496000D01*
X163952458Y-158685928D01*
X163952459Y-158685931D01*
X164011470Y-158867549D01*
X164011473Y-158867556D01*
X164106960Y-159032944D01*
X164234747Y-159174866D01*
X164389248Y-159287118D01*
X164563712Y-159364794D01*
X164750513Y-159404500D01*
X164941487Y-159404500D01*
X165128288Y-159364794D01*
X165302752Y-159287118D01*
X165457253Y-159174866D01*
X165585040Y-159032944D01*
X165680527Y-158867556D01*
X165739542Y-158685928D01*
X165759504Y-158496000D01*
X165755615Y-158459000D01*
X184233496Y-158459000D01*
X184253458Y-158648928D01*
X184253459Y-158648931D01*
X184312470Y-158830549D01*
X184312473Y-158830556D01*
X184407960Y-158995944D01*
X184441275Y-159032944D01*
X184520120Y-159120511D01*
X184535747Y-159137866D01*
X184690248Y-159250118D01*
X184864712Y-159327794D01*
X185051513Y-159367500D01*
X185242487Y-159367500D01*
X185429288Y-159327794D01*
X185603752Y-159250118D01*
X185758253Y-159137866D01*
X185886040Y-158995944D01*
X185981527Y-158830556D01*
X186040542Y-158648928D01*
X186060504Y-158459000D01*
X186040542Y-158269072D01*
X185981527Y-158087444D01*
X185886040Y-157922056D01*
X185758253Y-157780134D01*
X185603752Y-157667882D01*
X185429288Y-157590206D01*
X185429286Y-157590205D01*
X185242487Y-157550500D01*
X185051513Y-157550500D01*
X184864714Y-157590205D01*
X184690246Y-157667883D01*
X184535745Y-157780135D01*
X184407959Y-157922057D01*
X184312473Y-158087443D01*
X184312470Y-158087450D01*
X184289266Y-158158866D01*
X184253458Y-158269072D01*
X184233496Y-158459000D01*
X165755615Y-158459000D01*
X165739542Y-158306072D01*
X165680527Y-158124444D01*
X165585040Y-157959056D01*
X165457253Y-157817134D01*
X165302752Y-157704882D01*
X165128288Y-157627206D01*
X165128286Y-157627205D01*
X164941487Y-157587500D01*
X164750513Y-157587500D01*
X164563714Y-157627205D01*
X164563711Y-157627206D01*
X164563712Y-157627206D01*
X164390403Y-157704368D01*
X164389246Y-157704883D01*
X164234745Y-157817135D01*
X164106959Y-157959057D01*
X164011473Y-158124443D01*
X164011470Y-158124450D01*
X163964481Y-158269068D01*
X163952458Y-158306072D01*
X163932496Y-158496000D01*
X153196295Y-158496000D01*
X153205941Y-156210000D01*
X177150996Y-156210000D01*
X177170958Y-156399928D01*
X177170959Y-156399931D01*
X177229970Y-156581549D01*
X177229973Y-156581556D01*
X177325460Y-156746944D01*
X177453247Y-156888866D01*
X177607748Y-157001118D01*
X177782212Y-157078794D01*
X177792930Y-157081072D01*
X177854411Y-157114262D01*
X177888189Y-157175425D01*
X177890470Y-157189396D01*
X177895458Y-157236849D01*
X177895459Y-157236852D01*
X177954470Y-157418470D01*
X177954473Y-157418477D01*
X178049960Y-157583865D01*
X178177747Y-157725787D01*
X178332248Y-157838039D01*
X178506712Y-157915715D01*
X178693513Y-157955421D01*
X178884487Y-157955421D01*
X179071288Y-157915715D01*
X179245752Y-157838039D01*
X179400253Y-157725787D01*
X179528040Y-157583865D01*
X179588007Y-157480000D01*
X193902496Y-157480000D01*
X193922458Y-157669928D01*
X193922459Y-157669931D01*
X193981470Y-157851549D01*
X193981473Y-157851556D01*
X194076960Y-158016944D01*
X194204747Y-158158866D01*
X194359248Y-158271118D01*
X194533712Y-158348794D01*
X194720513Y-158388500D01*
X194911487Y-158388500D01*
X195098288Y-158348794D01*
X195272752Y-158271118D01*
X195427253Y-158158866D01*
X195555040Y-158016944D01*
X195650527Y-157851556D01*
X195709542Y-157669928D01*
X195729504Y-157480000D01*
X195709542Y-157290072D01*
X195650527Y-157108444D01*
X195555040Y-156943056D01*
X195427253Y-156801134D01*
X195272752Y-156688882D01*
X195098288Y-156611206D01*
X195098286Y-156611205D01*
X194911487Y-156571500D01*
X194720513Y-156571500D01*
X194533714Y-156611205D01*
X194533711Y-156611206D01*
X194533712Y-156611206D01*
X194389595Y-156675371D01*
X194359246Y-156688883D01*
X194204745Y-156801135D01*
X194076959Y-156943057D01*
X193981473Y-157108443D01*
X193981470Y-157108450D01*
X193922459Y-157290068D01*
X193922458Y-157290072D01*
X193902496Y-157480000D01*
X179588007Y-157480000D01*
X179623527Y-157418477D01*
X179682542Y-157236849D01*
X179702504Y-157046921D01*
X179682542Y-156856993D01*
X179623527Y-156675365D01*
X179528040Y-156509977D01*
X179400253Y-156368055D01*
X179245752Y-156255803D01*
X179071288Y-156178127D01*
X179071286Y-156178126D01*
X179060567Y-156175848D01*
X178999085Y-156142655D01*
X178965309Y-156081491D01*
X178963028Y-156067517D01*
X178958696Y-156026300D01*
X178958042Y-156020072D01*
X178899027Y-155838444D01*
X178803540Y-155673056D01*
X178675753Y-155531134D01*
X178521252Y-155418882D01*
X178346788Y-155341206D01*
X178346786Y-155341205D01*
X178159987Y-155301500D01*
X177969013Y-155301500D01*
X177782214Y-155341205D01*
X177607746Y-155418883D01*
X177453245Y-155531135D01*
X177325459Y-155673057D01*
X177229973Y-155838443D01*
X177229970Y-155838450D01*
X177170959Y-156020068D01*
X177170958Y-156020072D01*
X177150996Y-156210000D01*
X153205941Y-156210000D01*
X153212371Y-154686000D01*
X163932496Y-154686000D01*
X163952458Y-154875928D01*
X163952459Y-154875931D01*
X164011470Y-155057549D01*
X164011473Y-155057556D01*
X164106960Y-155222944D01*
X164234747Y-155364866D01*
X164389248Y-155477118D01*
X164563712Y-155554794D01*
X164750513Y-155594500D01*
X164941487Y-155594500D01*
X165128288Y-155554794D01*
X165302752Y-155477118D01*
X165457253Y-155364866D01*
X165585040Y-155222944D01*
X165680527Y-155057556D01*
X165739542Y-154875928D01*
X165759504Y-154686000D01*
X170790496Y-154686000D01*
X170810458Y-154875928D01*
X170810459Y-154875931D01*
X170869470Y-155057549D01*
X170869473Y-155057556D01*
X170964960Y-155222944D01*
X171092747Y-155364866D01*
X171247248Y-155477118D01*
X171421712Y-155554794D01*
X171608513Y-155594500D01*
X171799487Y-155594500D01*
X171986288Y-155554794D01*
X172160752Y-155477118D01*
X172315253Y-155364866D01*
X172443040Y-155222944D01*
X172538527Y-155057556D01*
X172597542Y-154875928D01*
X172617504Y-154686000D01*
X173076496Y-154686000D01*
X173096458Y-154875928D01*
X173096459Y-154875931D01*
X173155470Y-155057549D01*
X173155473Y-155057556D01*
X173250960Y-155222944D01*
X173378747Y-155364866D01*
X173533248Y-155477118D01*
X173707712Y-155554794D01*
X173894513Y-155594500D01*
X174085487Y-155594500D01*
X174272288Y-155554794D01*
X174446752Y-155477118D01*
X174601253Y-155364866D01*
X174729040Y-155222944D01*
X174789745Y-155117800D01*
X180950496Y-155117800D01*
X180970458Y-155307728D01*
X180970459Y-155307731D01*
X181029470Y-155489349D01*
X181029473Y-155489356D01*
X181124960Y-155654744D01*
X181252747Y-155796666D01*
X181407248Y-155908918D01*
X181581712Y-155986594D01*
X181768513Y-156026300D01*
X181959487Y-156026300D01*
X182146288Y-155986594D01*
X182320752Y-155908918D01*
X182475253Y-155796666D01*
X182603040Y-155654744D01*
X182698527Y-155489356D01*
X182757542Y-155307728D01*
X182777504Y-155117800D01*
X182757542Y-154927872D01*
X182698527Y-154746244D01*
X182603040Y-154580856D01*
X182475253Y-154438934D01*
X182320752Y-154326682D01*
X182146288Y-154249006D01*
X182146286Y-154249005D01*
X181959487Y-154209300D01*
X181768513Y-154209300D01*
X181581714Y-154249005D01*
X181581711Y-154249006D01*
X181581712Y-154249006D01*
X181423409Y-154319487D01*
X181407246Y-154326683D01*
X181252745Y-154438935D01*
X181124959Y-154580857D01*
X181029473Y-154746243D01*
X181029470Y-154746250D01*
X180970459Y-154927868D01*
X180970458Y-154927872D01*
X180950496Y-155117800D01*
X174789745Y-155117800D01*
X174824527Y-155057556D01*
X174883542Y-154875928D01*
X174903504Y-154686000D01*
X174883542Y-154496072D01*
X174824527Y-154314444D01*
X174729040Y-154149056D01*
X174613981Y-154021269D01*
X174601254Y-154007135D01*
X174506428Y-153938239D01*
X174446752Y-153894882D01*
X174272288Y-153817206D01*
X174272286Y-153817205D01*
X174085487Y-153777500D01*
X173894513Y-153777500D01*
X173707714Y-153817205D01*
X173533246Y-153894883D01*
X173378745Y-154007135D01*
X173250959Y-154149057D01*
X173155473Y-154314443D01*
X173155470Y-154314450D01*
X173115023Y-154438934D01*
X173096458Y-154496072D01*
X173076496Y-154686000D01*
X172617504Y-154686000D01*
X172597542Y-154496072D01*
X172538527Y-154314444D01*
X172443040Y-154149056D01*
X172327981Y-154021270D01*
X172315254Y-154007135D01*
X172220428Y-153938239D01*
X172160752Y-153894882D01*
X171986288Y-153817206D01*
X171986286Y-153817205D01*
X171799487Y-153777500D01*
X171608513Y-153777500D01*
X171421714Y-153817205D01*
X171247246Y-153894883D01*
X171092745Y-154007135D01*
X170964959Y-154149057D01*
X170869473Y-154314443D01*
X170869470Y-154314450D01*
X170829023Y-154438934D01*
X170810458Y-154496072D01*
X170790496Y-154686000D01*
X165759504Y-154686000D01*
X165739542Y-154496072D01*
X165680527Y-154314444D01*
X165585040Y-154149056D01*
X165469981Y-154021270D01*
X165457254Y-154007135D01*
X165362428Y-153938239D01*
X165302752Y-153894882D01*
X165128288Y-153817206D01*
X165128286Y-153817205D01*
X164941487Y-153777500D01*
X164750513Y-153777500D01*
X164563714Y-153817205D01*
X164389246Y-153894883D01*
X164234745Y-154007135D01*
X164106959Y-154149057D01*
X164011473Y-154314443D01*
X164011470Y-154314450D01*
X163971023Y-154438934D01*
X163952458Y-154496072D01*
X163932496Y-154686000D01*
X153212371Y-154686000D01*
X153222017Y-152400000D01*
X154526620Y-152400000D01*
X154546091Y-152597699D01*
X154603760Y-152787808D01*
X154697401Y-152962998D01*
X154697405Y-152963005D01*
X154823431Y-153116568D01*
X154976994Y-153242594D01*
X154977001Y-153242598D01*
X155152191Y-153336239D01*
X155152193Y-153336239D01*
X155152196Y-153336241D01*
X155342299Y-153393908D01*
X155342298Y-153393908D01*
X155379337Y-153397556D01*
X155490453Y-153408500D01*
X155490456Y-153408500D01*
X156189544Y-153408500D01*
X156189547Y-153408500D01*
X156337701Y-153393908D01*
X156527804Y-153336241D01*
X156703004Y-153242595D01*
X156856568Y-153116568D01*
X156982595Y-152963004D01*
X157076241Y-152787804D01*
X157133908Y-152597701D01*
X157153380Y-152400000D01*
X158456620Y-152400000D01*
X158476091Y-152597699D01*
X158533760Y-152787808D01*
X158627401Y-152962998D01*
X158627405Y-152963005D01*
X158753431Y-153116568D01*
X158906994Y-153242594D01*
X158907001Y-153242598D01*
X159059446Y-153324082D01*
X159109290Y-153373044D01*
X159124751Y-153441182D01*
X159102298Y-153504948D01*
X159046160Y-153584477D01*
X158997491Y-153721416D01*
X158997491Y-153721419D01*
X158987573Y-153866416D01*
X158987573Y-153866419D01*
X159017141Y-154008710D01*
X159017142Y-154008713D01*
X159017143Y-154008716D01*
X159040522Y-154053836D01*
X159084005Y-154137756D01*
X159084007Y-154137758D01*
X159183207Y-154243975D01*
X159307385Y-154319489D01*
X159447332Y-154358700D01*
X159447334Y-154358700D01*
X159556168Y-154358700D01*
X159583120Y-154354995D01*
X159663983Y-154343881D01*
X159797287Y-154285979D01*
X159910026Y-154194259D01*
X159916970Y-154184420D01*
X159971711Y-154141002D01*
X160041236Y-154134071D01*
X160091160Y-154155608D01*
X160168248Y-154211616D01*
X160342712Y-154289292D01*
X160529513Y-154328998D01*
X160720487Y-154328998D01*
X160907288Y-154289292D01*
X161081752Y-154211616D01*
X161236253Y-154099364D01*
X161364040Y-153957442D01*
X161459527Y-153792054D01*
X161518542Y-153610426D01*
X161538504Y-153420498D01*
X161518542Y-153230570D01*
X161459527Y-153048942D01*
X161445759Y-153025095D01*
X161429286Y-152957199D01*
X161443786Y-152904648D01*
X161506241Y-152787804D01*
X161563908Y-152597701D01*
X161583380Y-152400000D01*
X161563908Y-152202299D01*
X161546830Y-152146000D01*
X171552496Y-152146000D01*
X171572458Y-152335928D01*
X171572459Y-152335931D01*
X171631470Y-152517549D01*
X171631473Y-152517556D01*
X171726960Y-152682944D01*
X171854747Y-152824866D01*
X172009248Y-152937118D01*
X172183712Y-153014794D01*
X172370513Y-153054500D01*
X172561487Y-153054500D01*
X172748288Y-153014794D01*
X172922752Y-152937118D01*
X173077253Y-152824866D01*
X173205040Y-152682944D01*
X173300527Y-152517556D01*
X173359542Y-152335928D01*
X173379504Y-152146000D01*
X173359542Y-151956072D01*
X173300527Y-151774444D01*
X173205040Y-151609056D01*
X173077253Y-151467134D01*
X172962829Y-151384000D01*
X181966496Y-151384000D01*
X181986458Y-151573928D01*
X181986459Y-151573931D01*
X182045470Y-151755549D01*
X182045473Y-151755556D01*
X182140960Y-151920944D01*
X182268747Y-152062866D01*
X182423248Y-152175118D01*
X182597712Y-152252794D01*
X182784513Y-152292500D01*
X182975487Y-152292500D01*
X183162288Y-152252794D01*
X183336752Y-152175118D01*
X183491253Y-152062866D01*
X183619040Y-151920944D01*
X183714527Y-151755556D01*
X183752724Y-151638000D01*
X191364496Y-151638000D01*
X191384458Y-151827928D01*
X191384459Y-151827931D01*
X191443470Y-152009549D01*
X191443473Y-152009556D01*
X191538960Y-152174944D01*
X191666747Y-152316866D01*
X191821248Y-152429118D01*
X191995712Y-152506794D01*
X192182513Y-152546500D01*
X192373487Y-152546500D01*
X192560288Y-152506794D01*
X192734752Y-152429118D01*
X192889253Y-152316866D01*
X193017040Y-152174944D01*
X193112527Y-152009556D01*
X193171542Y-151827928D01*
X193191504Y-151638000D01*
X193171542Y-151448072D01*
X193112527Y-151266444D01*
X193017040Y-151101056D01*
X192889253Y-150959134D01*
X192734752Y-150846882D01*
X192560288Y-150769206D01*
X192560286Y-150769205D01*
X192373487Y-150729500D01*
X192182513Y-150729500D01*
X191995714Y-150769205D01*
X191821246Y-150846883D01*
X191666745Y-150959135D01*
X191538959Y-151101057D01*
X191443473Y-151266443D01*
X191443470Y-151266450D01*
X191398098Y-151406092D01*
X191384458Y-151448072D01*
X191364496Y-151638000D01*
X183752724Y-151638000D01*
X183773542Y-151573928D01*
X183793504Y-151384000D01*
X183773542Y-151194072D01*
X183714527Y-151012444D01*
X183619040Y-150847056D01*
X183491253Y-150705134D01*
X183336752Y-150592882D01*
X183162288Y-150515206D01*
X183162286Y-150515205D01*
X182975487Y-150475500D01*
X182784513Y-150475500D01*
X182597714Y-150515205D01*
X182423246Y-150592883D01*
X182268745Y-150705135D01*
X182140959Y-150847057D01*
X182045473Y-151012443D01*
X182045470Y-151012450D01*
X181996419Y-151163415D01*
X181986458Y-151194072D01*
X181966496Y-151384000D01*
X172962829Y-151384000D01*
X172922752Y-151354882D01*
X172748288Y-151277206D01*
X172748286Y-151277205D01*
X172561487Y-151237500D01*
X172370513Y-151237500D01*
X172183714Y-151277205D01*
X172009246Y-151354883D01*
X171854745Y-151467135D01*
X171726959Y-151609057D01*
X171631473Y-151774443D01*
X171631470Y-151774450D01*
X171572459Y-151956068D01*
X171572458Y-151956072D01*
X171552496Y-152146000D01*
X161546830Y-152146000D01*
X161506241Y-152012196D01*
X161506239Y-152012193D01*
X161506239Y-152012191D01*
X161412598Y-151837001D01*
X161412594Y-151836994D01*
X161286568Y-151683431D01*
X161133005Y-151557405D01*
X161132998Y-151557401D01*
X160957808Y-151463760D01*
X160862752Y-151434925D01*
X160767701Y-151406092D01*
X160767699Y-151406091D01*
X160767701Y-151406091D01*
X160653336Y-151394827D01*
X160619547Y-151391500D01*
X159420453Y-151391500D01*
X159383883Y-151395101D01*
X159272300Y-151406091D01*
X159082191Y-151463760D01*
X158907001Y-151557401D01*
X158906994Y-151557405D01*
X158753431Y-151683431D01*
X158627405Y-151836994D01*
X158627401Y-151837001D01*
X158533760Y-152012191D01*
X158476091Y-152202300D01*
X158456620Y-152400000D01*
X157153380Y-152400000D01*
X157133908Y-152202299D01*
X157076241Y-152012196D01*
X157076239Y-152012193D01*
X157076239Y-152012191D01*
X156982598Y-151837001D01*
X156982594Y-151836994D01*
X156856568Y-151683431D01*
X156703005Y-151557405D01*
X156702998Y-151557401D01*
X156527808Y-151463760D01*
X156432752Y-151434925D01*
X156337701Y-151406092D01*
X156337699Y-151406091D01*
X156337701Y-151406091D01*
X156223336Y-151394827D01*
X156189547Y-151391500D01*
X155490453Y-151391500D01*
X155453883Y-151395101D01*
X155342300Y-151406091D01*
X155152191Y-151463760D01*
X154977001Y-151557401D01*
X154976994Y-151557405D01*
X154823431Y-151683431D01*
X154697405Y-151836994D01*
X154697401Y-151837001D01*
X154603760Y-152012191D01*
X154546091Y-152202300D01*
X154526620Y-152400000D01*
X153222017Y-152400000D01*
X153232734Y-149860000D01*
X161900496Y-149860000D01*
X161920458Y-150049928D01*
X161920459Y-150049931D01*
X161979470Y-150231549D01*
X161979473Y-150231556D01*
X162074960Y-150396944D01*
X162202747Y-150538866D01*
X162357248Y-150651118D01*
X162531712Y-150728794D01*
X162718513Y-150768500D01*
X162909487Y-150768500D01*
X163096288Y-150728794D01*
X163270752Y-150651118D01*
X163425253Y-150538866D01*
X163553040Y-150396944D01*
X163567269Y-150372299D01*
X176128795Y-150372299D01*
X176148757Y-150562227D01*
X176148758Y-150562230D01*
X176207769Y-150743848D01*
X176207772Y-150743855D01*
X176303259Y-150909243D01*
X176431046Y-151051165D01*
X176585547Y-151163417D01*
X176760011Y-151241093D01*
X176946812Y-151280799D01*
X177137786Y-151280799D01*
X177324587Y-151241093D01*
X177499051Y-151163417D01*
X177653552Y-151051165D01*
X177781339Y-150909243D01*
X177876826Y-150743855D01*
X177935841Y-150562227D01*
X177955803Y-150372299D01*
X177935841Y-150182371D01*
X177905340Y-150088500D01*
X196444496Y-150088500D01*
X196464458Y-150278428D01*
X196464459Y-150278431D01*
X196523470Y-150460049D01*
X196523473Y-150460056D01*
X196618960Y-150625444D01*
X196746747Y-150767366D01*
X196901248Y-150879618D01*
X197075712Y-150957294D01*
X197262513Y-150997000D01*
X197453487Y-150997000D01*
X197640288Y-150957294D01*
X197814752Y-150879618D01*
X197969253Y-150767366D01*
X198097040Y-150625444D01*
X198192527Y-150460056D01*
X198251542Y-150278428D01*
X198271504Y-150088500D01*
X198251542Y-149898572D01*
X198192527Y-149716944D01*
X198097040Y-149551556D01*
X197969253Y-149409634D01*
X197814752Y-149297382D01*
X197640288Y-149219706D01*
X197640286Y-149219705D01*
X197453487Y-149180000D01*
X197262513Y-149180000D01*
X197075714Y-149219705D01*
X196901246Y-149297383D01*
X196746745Y-149409635D01*
X196618959Y-149551557D01*
X196523473Y-149716943D01*
X196523470Y-149716950D01*
X196464459Y-149898568D01*
X196464458Y-149898572D01*
X196444496Y-150088500D01*
X177905340Y-150088500D01*
X177876826Y-150000743D01*
X177781339Y-149835355D01*
X177653552Y-149693433D01*
X177499051Y-149581181D01*
X177324587Y-149503505D01*
X177324585Y-149503504D01*
X177137786Y-149463799D01*
X176946812Y-149463799D01*
X176760013Y-149503504D01*
X176585545Y-149581182D01*
X176431044Y-149693434D01*
X176303258Y-149835356D01*
X176207772Y-150000742D01*
X176207769Y-150000749D01*
X176148758Y-150182367D01*
X176148757Y-150182371D01*
X176128795Y-150372299D01*
X163567269Y-150372299D01*
X163648527Y-150231556D01*
X163707542Y-150049928D01*
X163727504Y-149860000D01*
X163707542Y-149670072D01*
X163648527Y-149488444D01*
X163553040Y-149323056D01*
X163548021Y-149317482D01*
X168469978Y-149317482D01*
X168489940Y-149507410D01*
X168489941Y-149507413D01*
X168548952Y-149689031D01*
X168548955Y-149689038D01*
X168644442Y-149854426D01*
X168772229Y-149996348D01*
X168926730Y-150108600D01*
X169101194Y-150186276D01*
X169287995Y-150225982D01*
X169478969Y-150225982D01*
X169665770Y-150186276D01*
X169840234Y-150108600D01*
X169994735Y-149996348D01*
X170122522Y-149854426D01*
X170218009Y-149689038D01*
X170277024Y-149507410D01*
X170296986Y-149317482D01*
X170277024Y-149127554D01*
X170218009Y-148945926D01*
X170159162Y-148844000D01*
X191364496Y-148844000D01*
X191384458Y-149033928D01*
X191384459Y-149033931D01*
X191443470Y-149215549D01*
X191443473Y-149215556D01*
X191538960Y-149380944D01*
X191666747Y-149522866D01*
X191821248Y-149635118D01*
X191995712Y-149712794D01*
X192182513Y-149752500D01*
X192373487Y-149752500D01*
X192560288Y-149712794D01*
X192734752Y-149635118D01*
X192889253Y-149522866D01*
X193017040Y-149380944D01*
X193112527Y-149215556D01*
X193171542Y-149033928D01*
X193191504Y-148844000D01*
X193171542Y-148654072D01*
X193112527Y-148472444D01*
X193017040Y-148307056D01*
X192889253Y-148165134D01*
X192734752Y-148052882D01*
X192560288Y-147975206D01*
X192560286Y-147975205D01*
X192373487Y-147935500D01*
X192182513Y-147935500D01*
X191995714Y-147975205D01*
X191821246Y-148052883D01*
X191666745Y-148165135D01*
X191538959Y-148307057D01*
X191443473Y-148472443D01*
X191443470Y-148472450D01*
X191384459Y-148654068D01*
X191384458Y-148654072D01*
X191364496Y-148844000D01*
X170159162Y-148844000D01*
X170122522Y-148780538D01*
X169994735Y-148638616D01*
X169840234Y-148526364D01*
X169665770Y-148448688D01*
X169665768Y-148448687D01*
X169478969Y-148408982D01*
X169287995Y-148408982D01*
X169101196Y-148448687D01*
X168926728Y-148526365D01*
X168772227Y-148638617D01*
X168644441Y-148780539D01*
X168548955Y-148945925D01*
X168548952Y-148945932D01*
X168489941Y-149127550D01*
X168489940Y-149127554D01*
X168469978Y-149317482D01*
X163548021Y-149317482D01*
X163425253Y-149181134D01*
X163270752Y-149068882D01*
X163096288Y-148991206D01*
X163096286Y-148991205D01*
X162909487Y-148951500D01*
X162718513Y-148951500D01*
X162531714Y-148991205D01*
X162357246Y-149068883D01*
X162202745Y-149181135D01*
X162074959Y-149323057D01*
X161979473Y-149488443D01*
X161979470Y-149488450D01*
X161949340Y-149581182D01*
X161920458Y-149670072D01*
X161900496Y-149860000D01*
X153232734Y-149860000D01*
X153241326Y-147823701D01*
X178914197Y-147823701D01*
X178934159Y-148013629D01*
X178934160Y-148013632D01*
X178993171Y-148195250D01*
X178993174Y-148195257D01*
X179088661Y-148360645D01*
X179216448Y-148502567D01*
X179370949Y-148614819D01*
X179545413Y-148692495D01*
X179732214Y-148732201D01*
X179923188Y-148732201D01*
X180109989Y-148692495D01*
X180284453Y-148614819D01*
X180438954Y-148502567D01*
X180566741Y-148360645D01*
X180662228Y-148195257D01*
X180721243Y-148013629D01*
X180741205Y-147823701D01*
X180729675Y-147714000D01*
X184252496Y-147714000D01*
X184272458Y-147903928D01*
X184272459Y-147903931D01*
X184331470Y-148085549D01*
X184331473Y-148085556D01*
X184426960Y-148250944D01*
X184554747Y-148392866D01*
X184709248Y-148505118D01*
X184883712Y-148582794D01*
X185070513Y-148622500D01*
X185261487Y-148622500D01*
X185448288Y-148582794D01*
X185622752Y-148505118D01*
X185777253Y-148392866D01*
X185905040Y-148250944D01*
X186000527Y-148085556D01*
X186059542Y-147903928D01*
X186079504Y-147714000D01*
X186059542Y-147524072D01*
X186000527Y-147342444D01*
X185905040Y-147177056D01*
X185777253Y-147035134D01*
X185622752Y-146922882D01*
X185448288Y-146845206D01*
X185448286Y-146845205D01*
X185261487Y-146805500D01*
X185070513Y-146805500D01*
X184883714Y-146845205D01*
X184709246Y-146922883D01*
X184554745Y-147035135D01*
X184426959Y-147177057D01*
X184331473Y-147342443D01*
X184331470Y-147342450D01*
X184294961Y-147454815D01*
X184272458Y-147524072D01*
X184252496Y-147714000D01*
X180729675Y-147714000D01*
X180721243Y-147633773D01*
X180685597Y-147524068D01*
X180663096Y-147454815D01*
X180661101Y-147384974D01*
X180697181Y-147325141D01*
X180759882Y-147294313D01*
X180829296Y-147302278D01*
X180853909Y-147316177D01*
X180899248Y-147349118D01*
X181073712Y-147426794D01*
X181260513Y-147466500D01*
X181451487Y-147466500D01*
X181638288Y-147426794D01*
X181812752Y-147349118D01*
X181967253Y-147236866D01*
X182095040Y-147094944D01*
X182190527Y-146929556D01*
X182249542Y-146747928D01*
X182269504Y-146558000D01*
X182249542Y-146368072D01*
X182190527Y-146186444D01*
X182095040Y-146021056D01*
X181967253Y-145879134D01*
X181812752Y-145766882D01*
X181638288Y-145689206D01*
X181638286Y-145689205D01*
X181451487Y-145649500D01*
X181260513Y-145649500D01*
X181073714Y-145689205D01*
X180899246Y-145766883D01*
X180744745Y-145879135D01*
X180616959Y-146021057D01*
X180521473Y-146186443D01*
X180521470Y-146186450D01*
X180468978Y-146348005D01*
X180462458Y-146368072D01*
X180442496Y-146558000D01*
X180462458Y-146747928D01*
X180462459Y-146747931D01*
X180520604Y-146926885D01*
X180522599Y-146996726D01*
X180486518Y-147056559D01*
X180423817Y-147087387D01*
X180354403Y-147079422D01*
X180329787Y-147065520D01*
X180284458Y-147032586D01*
X180284457Y-147032585D01*
X180264317Y-147023618D01*
X180109989Y-146954907D01*
X180109987Y-146954906D01*
X179923188Y-146915201D01*
X179732214Y-146915201D01*
X179545415Y-146954906D01*
X179370947Y-147032584D01*
X179216446Y-147144836D01*
X179088660Y-147286758D01*
X178993174Y-147452144D01*
X178993171Y-147452151D01*
X178969803Y-147524072D01*
X178934159Y-147633773D01*
X178914197Y-147823701D01*
X153241326Y-147823701D01*
X153248810Y-146050000D01*
X155804496Y-146050000D01*
X155824458Y-146239928D01*
X155824459Y-146239931D01*
X155883470Y-146421549D01*
X155883473Y-146421556D01*
X155978960Y-146586944D01*
X156106747Y-146728866D01*
X156261248Y-146841118D01*
X156435712Y-146918794D01*
X156622513Y-146958500D01*
X156813487Y-146958500D01*
X157000288Y-146918794D01*
X157174752Y-146841118D01*
X157329253Y-146728866D01*
X157457040Y-146586944D01*
X157552527Y-146421556D01*
X157611542Y-146239928D01*
X157631504Y-146050000D01*
X157611542Y-145860072D01*
X157590724Y-145796000D01*
X164440496Y-145796000D01*
X164460458Y-145985928D01*
X164460459Y-145985931D01*
X164519470Y-146167549D01*
X164519473Y-146167556D01*
X164614960Y-146332944D01*
X164742747Y-146474866D01*
X164897248Y-146587118D01*
X165071712Y-146664794D01*
X165258513Y-146704500D01*
X165449487Y-146704500D01*
X165636288Y-146664794D01*
X165810752Y-146587118D01*
X165850829Y-146558000D01*
X170028496Y-146558000D01*
X170048458Y-146747928D01*
X170048459Y-146747931D01*
X170107470Y-146929549D01*
X170107473Y-146929556D01*
X170202960Y-147094944D01*
X170330747Y-147236866D01*
X170485248Y-147349118D01*
X170659712Y-147426794D01*
X170846513Y-147466500D01*
X171037487Y-147466500D01*
X171224288Y-147426794D01*
X171398752Y-147349118D01*
X171553253Y-147236866D01*
X171681040Y-147094944D01*
X171776527Y-146929556D01*
X171835542Y-146747928D01*
X171855504Y-146558000D01*
X171848007Y-146486674D01*
X177323170Y-146486674D01*
X177343132Y-146676602D01*
X177343133Y-146676605D01*
X177402144Y-146858223D01*
X177402147Y-146858230D01*
X177497634Y-147023618D01*
X177625421Y-147165540D01*
X177779922Y-147277792D01*
X177954386Y-147355468D01*
X178141187Y-147395174D01*
X178332161Y-147395174D01*
X178518962Y-147355468D01*
X178693426Y-147277792D01*
X178847927Y-147165540D01*
X178975714Y-147023618D01*
X179071201Y-146858230D01*
X179130216Y-146676602D01*
X179150178Y-146486674D01*
X179130216Y-146296746D01*
X179071201Y-146115118D01*
X178975714Y-145949730D01*
X178847927Y-145807808D01*
X178693426Y-145695556D01*
X178518962Y-145617880D01*
X178518960Y-145617879D01*
X178332161Y-145578174D01*
X178141187Y-145578174D01*
X177954388Y-145617879D01*
X177954385Y-145617880D01*
X177954386Y-145617880D01*
X177794185Y-145689206D01*
X177779920Y-145695557D01*
X177625419Y-145807809D01*
X177497633Y-145949731D01*
X177402147Y-146115117D01*
X177402144Y-146115124D01*
X177362726Y-146236442D01*
X177343132Y-146296746D01*
X177323170Y-146486674D01*
X171848007Y-146486674D01*
X171835542Y-146368072D01*
X171776527Y-146186444D01*
X171681040Y-146021056D01*
X171553253Y-145879134D01*
X171398752Y-145766882D01*
X171224288Y-145689206D01*
X171224286Y-145689205D01*
X171037487Y-145649500D01*
X170846513Y-145649500D01*
X170659714Y-145689205D01*
X170485246Y-145766883D01*
X170330745Y-145879135D01*
X170202959Y-146021057D01*
X170107473Y-146186443D01*
X170107470Y-146186450D01*
X170054978Y-146348005D01*
X170048458Y-146368072D01*
X170028496Y-146558000D01*
X165850829Y-146558000D01*
X165965253Y-146474866D01*
X166093040Y-146332944D01*
X166188527Y-146167556D01*
X166247542Y-145985928D01*
X166267504Y-145796000D01*
X166247542Y-145606072D01*
X166188527Y-145424444D01*
X166093040Y-145259056D01*
X165965253Y-145117134D01*
X165810752Y-145004882D01*
X165636288Y-144927206D01*
X165636286Y-144927205D01*
X165449487Y-144887500D01*
X165258513Y-144887500D01*
X165071714Y-144927205D01*
X164897246Y-145004883D01*
X164742745Y-145117135D01*
X164614959Y-145259057D01*
X164519473Y-145424443D01*
X164519470Y-145424450D01*
X164460459Y-145606068D01*
X164460458Y-145606072D01*
X164440496Y-145796000D01*
X157590724Y-145796000D01*
X157552527Y-145678444D01*
X157457040Y-145513056D01*
X157329253Y-145371134D01*
X157174752Y-145258882D01*
X157000288Y-145181206D01*
X157000286Y-145181205D01*
X156813487Y-145141500D01*
X156622513Y-145141500D01*
X156435714Y-145181205D01*
X156261246Y-145258883D01*
X156106745Y-145371135D01*
X155978959Y-145513057D01*
X155883473Y-145678443D01*
X155883470Y-145678450D01*
X155841439Y-145807809D01*
X155824458Y-145860072D01*
X155804496Y-146050000D01*
X153248810Y-146050000D01*
X153255240Y-144526000D01*
X180950496Y-144526000D01*
X180970458Y-144715928D01*
X180970459Y-144715931D01*
X181029470Y-144897549D01*
X181029473Y-144897556D01*
X181124960Y-145062944D01*
X181252747Y-145204866D01*
X181407248Y-145317118D01*
X181581712Y-145394794D01*
X181768513Y-145434500D01*
X181959487Y-145434500D01*
X182146288Y-145394794D01*
X182320752Y-145317118D01*
X182475253Y-145204866D01*
X182603040Y-145062944D01*
X182698527Y-144897556D01*
X182736724Y-144780000D01*
X192126496Y-144780000D01*
X192146458Y-144969928D01*
X192146459Y-144969931D01*
X192205470Y-145151549D01*
X192205473Y-145151556D01*
X192300960Y-145316944D01*
X192428747Y-145458866D01*
X192583248Y-145571118D01*
X192757712Y-145648794D01*
X192944513Y-145688500D01*
X193135487Y-145688500D01*
X193322288Y-145648794D01*
X193496752Y-145571118D01*
X193651253Y-145458866D01*
X193776288Y-145320000D01*
X199511601Y-145320000D01*
X199531154Y-145531013D01*
X199531154Y-145531015D01*
X199531155Y-145531018D01*
X199576163Y-145689205D01*
X199589151Y-145734853D01*
X199683611Y-145924554D01*
X199811324Y-146093673D01*
X199946052Y-146216493D01*
X199967935Y-146236442D01*
X200148115Y-146348005D01*
X200345726Y-146424560D01*
X200554039Y-146463500D01*
X200554042Y-146463500D01*
X200765958Y-146463500D01*
X200765961Y-146463500D01*
X200974274Y-146424560D01*
X201171885Y-146348005D01*
X201352065Y-146236442D01*
X201508677Y-146093671D01*
X201636389Y-145924554D01*
X201730850Y-145734850D01*
X201788845Y-145531018D01*
X201808399Y-145320000D01*
X201788845Y-145108982D01*
X201730850Y-144905150D01*
X201636389Y-144715446D01*
X201508677Y-144546329D01*
X201360925Y-144411635D01*
X201324644Y-144351925D01*
X201326405Y-144282078D01*
X201360926Y-144228362D01*
X201388680Y-144203061D01*
X201508677Y-144093669D01*
X201636389Y-143924552D01*
X201730850Y-143734848D01*
X201788845Y-143531016D01*
X201808399Y-143319998D01*
X201788845Y-143108980D01*
X201730850Y-142905148D01*
X201636389Y-142715444D01*
X201508677Y-142546327D01*
X201508675Y-142546324D01*
X201352066Y-142403557D01*
X201352065Y-142403556D01*
X201283449Y-142361070D01*
X201171886Y-142291993D01*
X201171884Y-142291992D01*
X201027392Y-142236016D01*
X200974274Y-142215438D01*
X200765961Y-142176498D01*
X200554039Y-142176498D01*
X200345726Y-142215438D01*
X200345723Y-142215438D01*
X200345723Y-142215439D01*
X200148115Y-142291992D01*
X200148113Y-142291993D01*
X199967933Y-142403557D01*
X199811324Y-142546324D01*
X199683611Y-142715443D01*
X199589151Y-142905144D01*
X199531154Y-143108984D01*
X199511601Y-143319997D01*
X199511601Y-143319998D01*
X199531154Y-143531011D01*
X199531154Y-143531013D01*
X199531155Y-143531016D01*
X199579215Y-143699931D01*
X199589151Y-143734851D01*
X199683611Y-143924552D01*
X199811324Y-144093671D01*
X199959073Y-144228362D01*
X199995355Y-144288073D01*
X199993594Y-144357921D01*
X199959073Y-144411636D01*
X199811324Y-144546326D01*
X199683611Y-144715445D01*
X199589151Y-144905146D01*
X199570719Y-144969928D01*
X199544255Y-145062942D01*
X199531154Y-145108986D01*
X199511601Y-145319999D01*
X199511601Y-145320000D01*
X193776288Y-145320000D01*
X193779040Y-145316944D01*
X193874527Y-145151556D01*
X193933542Y-144969928D01*
X193953504Y-144780000D01*
X193933542Y-144590072D01*
X193874527Y-144408444D01*
X193779040Y-144243056D01*
X193651253Y-144101134D01*
X193496752Y-143988882D01*
X193322288Y-143911206D01*
X193322286Y-143911205D01*
X193135487Y-143871500D01*
X192944513Y-143871500D01*
X192757714Y-143911205D01*
X192583246Y-143988883D01*
X192428745Y-144101135D01*
X192300959Y-144243057D01*
X192205473Y-144408443D01*
X192205470Y-144408450D01*
X192160671Y-144546329D01*
X192146458Y-144590072D01*
X192126496Y-144780000D01*
X182736724Y-144780000D01*
X182757542Y-144715928D01*
X182777504Y-144526000D01*
X182757542Y-144336072D01*
X182737015Y-144272900D01*
X182735021Y-144203061D01*
X182762796Y-144151612D01*
X182857040Y-144046944D01*
X182952527Y-143881556D01*
X183011542Y-143699928D01*
X183031504Y-143510000D01*
X183011542Y-143320072D01*
X182952527Y-143138444D01*
X182857040Y-142973056D01*
X182729253Y-142831134D01*
X182574752Y-142718882D01*
X182400288Y-142641206D01*
X182400286Y-142641205D01*
X182213487Y-142601500D01*
X182022513Y-142601500D01*
X181835714Y-142641205D01*
X181661246Y-142718883D01*
X181506745Y-142831135D01*
X181378959Y-142973057D01*
X181283473Y-143138443D01*
X181283470Y-143138450D01*
X181224482Y-143319997D01*
X181224458Y-143320072D01*
X181204496Y-143510000D01*
X181224458Y-143699928D01*
X181224459Y-143699931D01*
X181244983Y-143763098D01*
X181246978Y-143832939D01*
X181219203Y-143884387D01*
X181124958Y-143989057D01*
X181029473Y-144154443D01*
X181029470Y-144154450D01*
X180975680Y-144319999D01*
X180970458Y-144336072D01*
X180950496Y-144526000D01*
X153255240Y-144526000D01*
X153264886Y-142240000D01*
X171552496Y-142240000D01*
X171572458Y-142429928D01*
X171572459Y-142429931D01*
X171631470Y-142611549D01*
X171631473Y-142611556D01*
X171726960Y-142776944D01*
X171854747Y-142918866D01*
X172009248Y-143031118D01*
X172183712Y-143108794D01*
X172370513Y-143148500D01*
X172561487Y-143148500D01*
X172748288Y-143108794D01*
X172922752Y-143031118D01*
X172949703Y-143011536D01*
X173015508Y-142988056D01*
X173083562Y-143003881D01*
X173132258Y-143053985D01*
X173140520Y-143073536D01*
X173155470Y-143119550D01*
X173155473Y-143119556D01*
X173250960Y-143284944D01*
X173378747Y-143426866D01*
X173533248Y-143539118D01*
X173707712Y-143616794D01*
X173894513Y-143656500D01*
X174085487Y-143656500D01*
X174272283Y-143616795D01*
X174272282Y-143616795D01*
X174272288Y-143616794D01*
X174446752Y-143539118D01*
X174446757Y-143539114D01*
X174447564Y-143538755D01*
X174516814Y-143529471D01*
X174548436Y-143538755D01*
X174549242Y-143539114D01*
X174549248Y-143539118D01*
X174723712Y-143616794D01*
X174723715Y-143616794D01*
X174723716Y-143616795D01*
X174910513Y-143656500D01*
X175101487Y-143656500D01*
X175288283Y-143616795D01*
X175288282Y-143616795D01*
X175288288Y-143616794D01*
X175462752Y-143539118D01*
X175462757Y-143539114D01*
X175463564Y-143538755D01*
X175532814Y-143529471D01*
X175564436Y-143538755D01*
X175565242Y-143539114D01*
X175565248Y-143539118D01*
X175739712Y-143616794D01*
X175739715Y-143616794D01*
X175739716Y-143616795D01*
X175926513Y-143656500D01*
X176117487Y-143656500D01*
X176304288Y-143616794D01*
X176446607Y-143553429D01*
X176515855Y-143544146D01*
X176569924Y-143566391D01*
X176581245Y-143574616D01*
X176581248Y-143574618D01*
X176755712Y-143652294D01*
X176942513Y-143692000D01*
X177133487Y-143692000D01*
X177320288Y-143652294D01*
X177494752Y-143574618D01*
X177649253Y-143462366D01*
X177777040Y-143320444D01*
X177872527Y-143155056D01*
X177931542Y-142973428D01*
X177951504Y-142783500D01*
X177931542Y-142593572D01*
X177872527Y-142411944D01*
X177777040Y-142246556D01*
X177649253Y-142104634D01*
X177494752Y-141992382D01*
X177320288Y-141914706D01*
X177320286Y-141914705D01*
X177133487Y-141875000D01*
X176942513Y-141875000D01*
X176755713Y-141914705D01*
X176755710Y-141914706D01*
X176613393Y-141978069D01*
X176544143Y-141987353D01*
X176490075Y-141965108D01*
X176478755Y-141956884D01*
X176478756Y-141956884D01*
X176427380Y-141934010D01*
X176304288Y-141879206D01*
X176304286Y-141879205D01*
X176117487Y-141839500D01*
X175926513Y-141839500D01*
X175739714Y-141879205D01*
X175564435Y-141957244D01*
X175495185Y-141966528D01*
X175463565Y-141957244D01*
X175411380Y-141934010D01*
X175288288Y-141879206D01*
X175288286Y-141879205D01*
X175101487Y-141839500D01*
X174910513Y-141839500D01*
X174723714Y-141879205D01*
X174548435Y-141957244D01*
X174479185Y-141966528D01*
X174447565Y-141957244D01*
X174395380Y-141934010D01*
X174272288Y-141879206D01*
X174272286Y-141879205D01*
X174085487Y-141839500D01*
X173894513Y-141839500D01*
X173707714Y-141879205D01*
X173533243Y-141956884D01*
X173533239Y-141956887D01*
X173506293Y-141976464D01*
X173440487Y-141999943D01*
X173372433Y-141984116D01*
X173323739Y-141934010D01*
X173315482Y-141914470D01*
X173300527Y-141868444D01*
X173205040Y-141703056D01*
X173077253Y-141561134D01*
X172922752Y-141448882D01*
X172748288Y-141371206D01*
X172748286Y-141371205D01*
X172561487Y-141331500D01*
X172370513Y-141331500D01*
X172183714Y-141371205D01*
X172009246Y-141448883D01*
X171854745Y-141561135D01*
X171726959Y-141703057D01*
X171631473Y-141868443D01*
X171631470Y-141868450D01*
X171591202Y-141992383D01*
X171572458Y-142050072D01*
X171552496Y-142240000D01*
X153264886Y-142240000D01*
X153272361Y-140468473D01*
X169726996Y-140468473D01*
X169746958Y-140658401D01*
X169746959Y-140658404D01*
X169805970Y-140840022D01*
X169805973Y-140840029D01*
X169901460Y-141005417D01*
X170029247Y-141147339D01*
X170183748Y-141259591D01*
X170358212Y-141337267D01*
X170545013Y-141376973D01*
X170735987Y-141376973D01*
X170922788Y-141337267D01*
X171097252Y-141259591D01*
X171146239Y-141224000D01*
X192126496Y-141224000D01*
X192146458Y-141413928D01*
X192146459Y-141413931D01*
X192205470Y-141595549D01*
X192205473Y-141595556D01*
X192300960Y-141760944D01*
X192428747Y-141902866D01*
X192583248Y-142015118D01*
X192757712Y-142092794D01*
X192944513Y-142132500D01*
X193135487Y-142132500D01*
X193322288Y-142092794D01*
X193496752Y-142015118D01*
X193651253Y-141902866D01*
X193779040Y-141760944D01*
X193874527Y-141595556D01*
X193933542Y-141413928D01*
X193953504Y-141224000D01*
X193933542Y-141034072D01*
X193874527Y-140852444D01*
X193779040Y-140687056D01*
X193651253Y-140545134D01*
X193496752Y-140432882D01*
X193322288Y-140355206D01*
X193322286Y-140355205D01*
X193135487Y-140315500D01*
X192944513Y-140315500D01*
X192757714Y-140355205D01*
X192583246Y-140432883D01*
X192428745Y-140545135D01*
X192300959Y-140687057D01*
X192205473Y-140852443D01*
X192205470Y-140852450D01*
X192146459Y-141034068D01*
X192146458Y-141034072D01*
X192126496Y-141224000D01*
X171146239Y-141224000D01*
X171251753Y-141147339D01*
X171379540Y-141005417D01*
X171433018Y-140912789D01*
X171483582Y-140864577D01*
X171552189Y-140851353D01*
X171566171Y-140853499D01*
X171608513Y-140862500D01*
X171608515Y-140862500D01*
X171799487Y-140862500D01*
X171986288Y-140822794D01*
X172160752Y-140745118D01*
X172315253Y-140632866D01*
X172443040Y-140490944D01*
X172538527Y-140325556D01*
X172597542Y-140143928D01*
X172617504Y-139954000D01*
X172597542Y-139764072D01*
X172538527Y-139582444D01*
X172443040Y-139417056D01*
X172315253Y-139275134D01*
X172200829Y-139192000D01*
X178664496Y-139192000D01*
X178684458Y-139381928D01*
X178684459Y-139381931D01*
X178743470Y-139563549D01*
X178743473Y-139563556D01*
X178838960Y-139728944D01*
X178966747Y-139870866D01*
X179121248Y-139983118D01*
X179295712Y-140060794D01*
X179482513Y-140100500D01*
X179673487Y-140100500D01*
X179860288Y-140060794D01*
X180034752Y-139983118D01*
X180189253Y-139870866D01*
X180317040Y-139728944D01*
X180412527Y-139563556D01*
X180471542Y-139381928D01*
X180491504Y-139192000D01*
X180471542Y-139002072D01*
X180412527Y-138820444D01*
X180317040Y-138655056D01*
X180189253Y-138513134D01*
X180034752Y-138400882D01*
X179860288Y-138323206D01*
X179860286Y-138323205D01*
X179673487Y-138283500D01*
X179482513Y-138283500D01*
X179295714Y-138323205D01*
X179121246Y-138400883D01*
X178966745Y-138513135D01*
X178838959Y-138655057D01*
X178743473Y-138820443D01*
X178743470Y-138820450D01*
X178695816Y-138967116D01*
X178684458Y-139002072D01*
X178664496Y-139192000D01*
X172200829Y-139192000D01*
X172160752Y-139162882D01*
X171986288Y-139085206D01*
X171986286Y-139085205D01*
X171799487Y-139045500D01*
X171608513Y-139045500D01*
X171421714Y-139085205D01*
X171247246Y-139162883D01*
X171092745Y-139275135D01*
X170964960Y-139417055D01*
X170911482Y-139509681D01*
X170860914Y-139557896D01*
X170792307Y-139571118D01*
X170778315Y-139568970D01*
X170735987Y-139559973D01*
X170545013Y-139559973D01*
X170358214Y-139599678D01*
X170358211Y-139599679D01*
X170358212Y-139599679D01*
X170192762Y-139673342D01*
X170183746Y-139677356D01*
X170029245Y-139789608D01*
X169901459Y-139931530D01*
X169805973Y-140096916D01*
X169805970Y-140096923D01*
X169746959Y-140278541D01*
X169746958Y-140278545D01*
X169726996Y-140468473D01*
X153272361Y-140468473D01*
X153280983Y-138425005D01*
X156116844Y-138425005D01*
X156135434Y-138649359D01*
X156135436Y-138649371D01*
X156190703Y-138867614D01*
X156281140Y-139073792D01*
X156404276Y-139262265D01*
X156404284Y-139262276D01*
X156556756Y-139427902D01*
X156556760Y-139427906D01*
X156734424Y-139566189D01*
X156734425Y-139566189D01*
X156734427Y-139566191D01*
X156796306Y-139599678D01*
X156932426Y-139673342D01*
X157145365Y-139746444D01*
X157367431Y-139783500D01*
X157592569Y-139783500D01*
X157814635Y-139746444D01*
X158027574Y-139673342D01*
X158225576Y-139566189D01*
X158403240Y-139427906D01*
X158555722Y-139262268D01*
X158678860Y-139073791D01*
X158769296Y-138867616D01*
X158824564Y-138649368D01*
X158843156Y-138425000D01*
X158841157Y-138400882D01*
X158824565Y-138200640D01*
X158824563Y-138200628D01*
X158818326Y-138176000D01*
X197206496Y-138176000D01*
X197226458Y-138365928D01*
X197226459Y-138365931D01*
X197285470Y-138547549D01*
X197285473Y-138547556D01*
X197380960Y-138712944D01*
X197508747Y-138854866D01*
X197663248Y-138967118D01*
X197837712Y-139044794D01*
X198024513Y-139084500D01*
X198215487Y-139084500D01*
X198402288Y-139044794D01*
X198576752Y-138967118D01*
X198731253Y-138854866D01*
X198859040Y-138712944D01*
X198954527Y-138547556D01*
X199013542Y-138365928D01*
X199033504Y-138176000D01*
X199013542Y-137986072D01*
X198954527Y-137804444D01*
X198859040Y-137639056D01*
X198731253Y-137497134D01*
X198576752Y-137384882D01*
X198402288Y-137307206D01*
X198402286Y-137307205D01*
X198215487Y-137267500D01*
X198024513Y-137267500D01*
X197837714Y-137307205D01*
X197663246Y-137384883D01*
X197508745Y-137497135D01*
X197380959Y-137639057D01*
X197285473Y-137804443D01*
X197285470Y-137804450D01*
X197237816Y-137951116D01*
X197226458Y-137986072D01*
X197206496Y-138176000D01*
X158818326Y-138176000D01*
X158769296Y-137982384D01*
X158678860Y-137776209D01*
X158555722Y-137587732D01*
X158555719Y-137587729D01*
X158555715Y-137587723D01*
X158410510Y-137429991D01*
X158379587Y-137367337D01*
X158387447Y-137297911D01*
X158431594Y-137243755D01*
X158458405Y-137229827D01*
X158538584Y-137199920D01*
X158576204Y-137185889D01*
X158610788Y-137160000D01*
X177902496Y-137160000D01*
X177922458Y-137349928D01*
X177922459Y-137349931D01*
X177981470Y-137531549D01*
X177981473Y-137531556D01*
X178076960Y-137696944D01*
X178204747Y-137838866D01*
X178359248Y-137951118D01*
X178533712Y-138028794D01*
X178720513Y-138068500D01*
X178911487Y-138068500D01*
X179098288Y-138028794D01*
X179272752Y-137951118D01*
X179427253Y-137838866D01*
X179555040Y-137696944D01*
X179650527Y-137531556D01*
X179709542Y-137349928D01*
X179729504Y-137160000D01*
X185522496Y-137160000D01*
X185542458Y-137349928D01*
X185542459Y-137349931D01*
X185601470Y-137531549D01*
X185601473Y-137531556D01*
X185696960Y-137696944D01*
X185824747Y-137838866D01*
X185979248Y-137951118D01*
X186153712Y-138028794D01*
X186340513Y-138068500D01*
X186531487Y-138068500D01*
X186718288Y-138028794D01*
X186892752Y-137951118D01*
X187047253Y-137838866D01*
X187175040Y-137696944D01*
X187270527Y-137531556D01*
X187329542Y-137349928D01*
X187349504Y-137160000D01*
X187329542Y-136970072D01*
X187270527Y-136788444D01*
X187175040Y-136623056D01*
X187047253Y-136481134D01*
X186892752Y-136368882D01*
X186718288Y-136291206D01*
X186718286Y-136291205D01*
X186531487Y-136251500D01*
X186340513Y-136251500D01*
X186153714Y-136291205D01*
X185979246Y-136368883D01*
X185824745Y-136481135D01*
X185696959Y-136623057D01*
X185601473Y-136788443D01*
X185601470Y-136788450D01*
X185583355Y-136844204D01*
X185542458Y-136970072D01*
X185522496Y-137160000D01*
X179729504Y-137160000D01*
X179709542Y-136970072D01*
X179650527Y-136788444D01*
X179555040Y-136623056D01*
X179427253Y-136481134D01*
X179272752Y-136368882D01*
X179098288Y-136291206D01*
X179098286Y-136291205D01*
X178911487Y-136251500D01*
X178720513Y-136251500D01*
X178533714Y-136291205D01*
X178359246Y-136368883D01*
X178204745Y-136481135D01*
X178076959Y-136623057D01*
X177981473Y-136788443D01*
X177981470Y-136788450D01*
X177963355Y-136844204D01*
X177922458Y-136970072D01*
X177902496Y-137160000D01*
X158610788Y-137160000D01*
X158693261Y-137098261D01*
X158780889Y-136981204D01*
X158831989Y-136844201D01*
X158837983Y-136788450D01*
X158838499Y-136783654D01*
X158838500Y-136783637D01*
X158838500Y-134986362D01*
X158838499Y-134986345D01*
X158832846Y-134933773D01*
X158831989Y-134925799D01*
X158780889Y-134788796D01*
X158693261Y-134671739D01*
X158576204Y-134584111D01*
X158576204Y-134584110D01*
X158439203Y-134533011D01*
X158378654Y-134526500D01*
X158378638Y-134526500D01*
X156581362Y-134526500D01*
X156581345Y-134526500D01*
X156520797Y-134533011D01*
X156520795Y-134533011D01*
X156383795Y-134584111D01*
X156266739Y-134671739D01*
X156179111Y-134788795D01*
X156128011Y-134925795D01*
X156128011Y-134925797D01*
X156121500Y-134986345D01*
X156121500Y-136783654D01*
X156128011Y-136844202D01*
X156128011Y-136844204D01*
X156174957Y-136970068D01*
X156179111Y-136981204D01*
X156266739Y-137098261D01*
X156383796Y-137185889D01*
X156435737Y-137205262D01*
X156501595Y-137229827D01*
X156557528Y-137271699D01*
X156581944Y-137337163D01*
X156567092Y-137405436D01*
X156549490Y-137429991D01*
X156404279Y-137587730D01*
X156404276Y-137587734D01*
X156281140Y-137776207D01*
X156190703Y-137982385D01*
X156135436Y-138200628D01*
X156135434Y-138200640D01*
X156116844Y-138424994D01*
X156116844Y-138425005D01*
X153280983Y-138425005D01*
X153283423Y-137846704D01*
X153303389Y-137779752D01*
X153356386Y-137734220D01*
X153425586Y-137724569D01*
X153489018Y-137753862D01*
X153499567Y-137764255D01*
X153566747Y-137838866D01*
X153721248Y-137951118D01*
X153895712Y-138028794D01*
X154082513Y-138068500D01*
X154273487Y-138068500D01*
X154460288Y-138028794D01*
X154634752Y-137951118D01*
X154789253Y-137838866D01*
X154917040Y-137696944D01*
X155012527Y-137531556D01*
X155071542Y-137349928D01*
X155091504Y-137160000D01*
X155071542Y-136970072D01*
X155012527Y-136788444D01*
X154917040Y-136623056D01*
X154789253Y-136481134D01*
X154634752Y-136368882D01*
X154460288Y-136291206D01*
X154460286Y-136291205D01*
X154273487Y-136251500D01*
X154082513Y-136251500D01*
X153895714Y-136291205D01*
X153721246Y-136368883D01*
X153566745Y-136481135D01*
X153505397Y-136549269D01*
X153445911Y-136585917D01*
X153376054Y-136584586D01*
X153318006Y-136545699D01*
X153290196Y-136481602D01*
X153289249Y-136465787D01*
X153301324Y-133604000D01*
X177902496Y-133604000D01*
X177922458Y-133793928D01*
X177922459Y-133793931D01*
X177981470Y-133975549D01*
X177981473Y-133975556D01*
X178076960Y-134140944D01*
X178204747Y-134282866D01*
X178359248Y-134395118D01*
X178533712Y-134472794D01*
X178720513Y-134512500D01*
X178916759Y-134512500D01*
X178983798Y-134532185D01*
X179029553Y-134584989D01*
X179039497Y-134654147D01*
X179024146Y-134698500D01*
X178993174Y-134752144D01*
X178993171Y-134752151D01*
X178936750Y-134925799D01*
X178934159Y-134933773D01*
X178914197Y-135123701D01*
X178934159Y-135313629D01*
X178934160Y-135313632D01*
X178993171Y-135495250D01*
X178993174Y-135495257D01*
X179088661Y-135660645D01*
X179216448Y-135802567D01*
X179370949Y-135914819D01*
X179545413Y-135992495D01*
X179732214Y-136032201D01*
X179923188Y-136032201D01*
X180109989Y-135992495D01*
X180284453Y-135914819D01*
X180438954Y-135802567D01*
X180566741Y-135660645D01*
X180662228Y-135495257D01*
X180721243Y-135313629D01*
X180741205Y-135123701D01*
X180721243Y-134933773D01*
X180662228Y-134752145D01*
X180566741Y-134586757D01*
X180438954Y-134444835D01*
X180284453Y-134332583D01*
X180109989Y-134254907D01*
X180109987Y-134254906D01*
X179923188Y-134215201D01*
X179732214Y-134215201D01*
X179726942Y-134215201D01*
X179659903Y-134195516D01*
X179614148Y-134142712D01*
X179604204Y-134073554D01*
X179619555Y-134029201D01*
X179620102Y-134028251D01*
X179650527Y-133975556D01*
X179709542Y-133793928D01*
X179729504Y-133604000D01*
X179709542Y-133414072D01*
X179650527Y-133232444D01*
X179555040Y-133067056D01*
X179427253Y-132925134D01*
X179272752Y-132812882D01*
X179098288Y-132735206D01*
X179098286Y-132735205D01*
X178911487Y-132695500D01*
X178720513Y-132695500D01*
X178533714Y-132735205D01*
X178533711Y-132735206D01*
X178533712Y-132735206D01*
X178389285Y-132799509D01*
X178359246Y-132812883D01*
X178204745Y-132925135D01*
X178076959Y-133067057D01*
X177981473Y-133232443D01*
X177981470Y-133232450D01*
X177933816Y-133379116D01*
X177922458Y-133414072D01*
X177902496Y-133604000D01*
X153301324Y-133604000D01*
X153306683Y-132334000D01*
X180950496Y-132334000D01*
X180970458Y-132523928D01*
X180970459Y-132523931D01*
X181029470Y-132705549D01*
X181029473Y-132705556D01*
X181124960Y-132870944D01*
X181169405Y-132920305D01*
X181257095Y-133017696D01*
X181255011Y-133019572D01*
X181285190Y-133068613D01*
X181283825Y-133138469D01*
X181272941Y-133163215D01*
X181232972Y-133232443D01*
X181185315Y-133379118D01*
X181173958Y-133414072D01*
X181153996Y-133604000D01*
X181173958Y-133793928D01*
X181173959Y-133793931D01*
X181232970Y-133975549D01*
X181232973Y-133975556D01*
X181328460Y-134140944D01*
X181456247Y-134282866D01*
X181610748Y-134395118D01*
X181785212Y-134472794D01*
X181972013Y-134512500D01*
X182162987Y-134512500D01*
X182349788Y-134472794D01*
X182524252Y-134395118D01*
X182678753Y-134282866D01*
X182806540Y-134140944D01*
X182902027Y-133975556D01*
X182961042Y-133793928D01*
X182981004Y-133604000D01*
X182961042Y-133414072D01*
X182902027Y-133232444D01*
X182806540Y-133067056D01*
X182678753Y-132925134D01*
X182674405Y-132920305D01*
X182676485Y-132918431D01*
X182646302Y-132869365D01*
X182647680Y-132799509D01*
X182658555Y-132774787D01*
X182698527Y-132705556D01*
X182736724Y-132588000D01*
X199746496Y-132588000D01*
X199766458Y-132777928D01*
X199766459Y-132777931D01*
X199825470Y-132959549D01*
X199825473Y-132959556D01*
X199920960Y-133124944D01*
X200048747Y-133266866D01*
X200203248Y-133379118D01*
X200377712Y-133456794D01*
X200564513Y-133496500D01*
X200755487Y-133496500D01*
X200942288Y-133456794D01*
X201116752Y-133379118D01*
X201271253Y-133266866D01*
X201399040Y-133124944D01*
X201494527Y-132959556D01*
X201553542Y-132777928D01*
X201573504Y-132588000D01*
X201553542Y-132398072D01*
X201494527Y-132216444D01*
X201399040Y-132051056D01*
X201271253Y-131909134D01*
X201116752Y-131796882D01*
X200942288Y-131719206D01*
X200942286Y-131719205D01*
X200755487Y-131679500D01*
X200564513Y-131679500D01*
X200377714Y-131719205D01*
X200203246Y-131796883D01*
X200048745Y-131909135D01*
X199920959Y-132051057D01*
X199825473Y-132216443D01*
X199825470Y-132216450D01*
X199787276Y-132334000D01*
X199766458Y-132398072D01*
X199746496Y-132588000D01*
X182736724Y-132588000D01*
X182757542Y-132523928D01*
X182777504Y-132334000D01*
X182757542Y-132144072D01*
X182698527Y-131962444D01*
X182603040Y-131797056D01*
X182475253Y-131655134D01*
X182320752Y-131542882D01*
X182146288Y-131465206D01*
X182146286Y-131465205D01*
X181959487Y-131425500D01*
X181768513Y-131425500D01*
X181581714Y-131465205D01*
X181407246Y-131542883D01*
X181252745Y-131655135D01*
X181124959Y-131797057D01*
X181029473Y-131962443D01*
X181029470Y-131962450D01*
X180970459Y-132144068D01*
X180970458Y-132144072D01*
X180950496Y-132334000D01*
X153306683Y-132334000D01*
X153321687Y-128778000D01*
X165964496Y-128778000D01*
X165984458Y-128967928D01*
X165984459Y-128967931D01*
X166043470Y-129149549D01*
X166043473Y-129149556D01*
X166138960Y-129314944D01*
X166266747Y-129456866D01*
X166421248Y-129569118D01*
X166595712Y-129646794D01*
X166782513Y-129686500D01*
X166973487Y-129686500D01*
X167160288Y-129646794D01*
X167334752Y-129569118D01*
X167489253Y-129456866D01*
X167617040Y-129314944D01*
X167712527Y-129149556D01*
X167771542Y-128967928D01*
X167791504Y-128778000D01*
X167771542Y-128588072D01*
X167712527Y-128406444D01*
X167617040Y-128241056D01*
X167489253Y-128099134D01*
X167334752Y-127986882D01*
X167160288Y-127909206D01*
X167160286Y-127909205D01*
X166973487Y-127869500D01*
X166782513Y-127869500D01*
X166595714Y-127909205D01*
X166421246Y-127986883D01*
X166266745Y-128099135D01*
X166138959Y-128241057D01*
X166043473Y-128406443D01*
X166043470Y-128406450D01*
X165995816Y-128553116D01*
X165984458Y-128588072D01*
X165964496Y-128778000D01*
X153321687Y-128778000D01*
X153325974Y-127762000D01*
X155042496Y-127762000D01*
X155062458Y-127951928D01*
X155062459Y-127951931D01*
X155121470Y-128133549D01*
X155121473Y-128133556D01*
X155216960Y-128298944D01*
X155344747Y-128440866D01*
X155499248Y-128553118D01*
X155673712Y-128630794D01*
X155860513Y-128670500D01*
X156051487Y-128670500D01*
X156238288Y-128630794D01*
X156412752Y-128553118D01*
X156567253Y-128440866D01*
X156657350Y-128340802D01*
X156716837Y-128304154D01*
X156786694Y-128305485D01*
X156841649Y-128340802D01*
X156931747Y-128440866D01*
X157086248Y-128553118D01*
X157260712Y-128630794D01*
X157447513Y-128670500D01*
X157638487Y-128670500D01*
X157825288Y-128630794D01*
X157999752Y-128553118D01*
X158154253Y-128440866D01*
X158282040Y-128298944D01*
X158377527Y-128133556D01*
X158436542Y-127951928D01*
X158456504Y-127762000D01*
X197206496Y-127762000D01*
X197226458Y-127951928D01*
X197226459Y-127951931D01*
X197285470Y-128133549D01*
X197285473Y-128133556D01*
X197380960Y-128298944D01*
X197508747Y-128440866D01*
X197663248Y-128553118D01*
X197837712Y-128630794D01*
X198024513Y-128670500D01*
X198215487Y-128670500D01*
X198402288Y-128630794D01*
X198576752Y-128553118D01*
X198731253Y-128440866D01*
X198859040Y-128298944D01*
X198954527Y-128133556D01*
X199013542Y-127951928D01*
X199033504Y-127762000D01*
X199013542Y-127572072D01*
X198954527Y-127390444D01*
X198859040Y-127225056D01*
X198731253Y-127083134D01*
X198576752Y-126970882D01*
X198402288Y-126893206D01*
X198402286Y-126893205D01*
X198215487Y-126853500D01*
X198024513Y-126853500D01*
X197837714Y-126893205D01*
X197663246Y-126970883D01*
X197508745Y-127083135D01*
X197380959Y-127225057D01*
X197285473Y-127390443D01*
X197285470Y-127390450D01*
X197226459Y-127572068D01*
X197226458Y-127572072D01*
X197206496Y-127762000D01*
X158456504Y-127762000D01*
X158436542Y-127572072D01*
X158377527Y-127390444D01*
X158282040Y-127225056D01*
X158154253Y-127083134D01*
X157999752Y-126970882D01*
X157825288Y-126893206D01*
X157825286Y-126893205D01*
X157638487Y-126853500D01*
X157447513Y-126853500D01*
X157260714Y-126893205D01*
X157086246Y-126970883D01*
X156931747Y-127083133D01*
X156841650Y-127183197D01*
X156782163Y-127219845D01*
X156712306Y-127218514D01*
X156657350Y-127183197D01*
X156567252Y-127083133D01*
X156412753Y-126970883D01*
X156412752Y-126970882D01*
X156238288Y-126893206D01*
X156238286Y-126893205D01*
X156051487Y-126853500D01*
X155860513Y-126853500D01*
X155673714Y-126893205D01*
X155499246Y-126970883D01*
X155344745Y-127083135D01*
X155216959Y-127225057D01*
X155121473Y-127390443D01*
X155121470Y-127390450D01*
X155062459Y-127572068D01*
X155062458Y-127572072D01*
X155042496Y-127762000D01*
X153325974Y-127762000D01*
X153348269Y-122478200D01*
X166980496Y-122478200D01*
X167000458Y-122668128D01*
X167000459Y-122668131D01*
X167059470Y-122849749D01*
X167059473Y-122849756D01*
X167154960Y-123015144D01*
X167282747Y-123157066D01*
X167437248Y-123269318D01*
X167611712Y-123346994D01*
X167798513Y-123386700D01*
X167989487Y-123386700D01*
X168176288Y-123346994D01*
X168350752Y-123269318D01*
X168505253Y-123157066D01*
X168633040Y-123015144D01*
X168728527Y-122849756D01*
X168787542Y-122668128D01*
X168807504Y-122478200D01*
X168787542Y-122288272D01*
X168750412Y-122174000D01*
X171806496Y-122174000D01*
X171826458Y-122363928D01*
X171826459Y-122363931D01*
X171885470Y-122545549D01*
X171885473Y-122545556D01*
X171980960Y-122710944D01*
X172108747Y-122852866D01*
X172263248Y-122965118D01*
X172437712Y-123042794D01*
X172624513Y-123082500D01*
X172815487Y-123082500D01*
X173002288Y-123042794D01*
X173176752Y-122965118D01*
X173331253Y-122852866D01*
X173459040Y-122710944D01*
X173554527Y-122545556D01*
X173613542Y-122363928D01*
X173633504Y-122174000D01*
X173613542Y-121984072D01*
X173554527Y-121802444D01*
X173475751Y-121666000D01*
X175108496Y-121666000D01*
X175128458Y-121855928D01*
X175128459Y-121855931D01*
X175187470Y-122037549D01*
X175187473Y-122037556D01*
X175282960Y-122202944D01*
X175410747Y-122344866D01*
X175565248Y-122457118D01*
X175739712Y-122534794D01*
X175926513Y-122574500D01*
X176117487Y-122574500D01*
X176304288Y-122534794D01*
X176478752Y-122457118D01*
X176633253Y-122344866D01*
X176761040Y-122202944D01*
X176856527Y-122037556D01*
X176915542Y-121855928D01*
X176935504Y-121666000D01*
X176915542Y-121476072D01*
X176856527Y-121294444D01*
X176761040Y-121129056D01*
X176633253Y-120987134D01*
X176478752Y-120874882D01*
X176304288Y-120797206D01*
X176304286Y-120797205D01*
X176117487Y-120757500D01*
X175926513Y-120757500D01*
X175739714Y-120797205D01*
X175565246Y-120874883D01*
X175410745Y-120987135D01*
X175282959Y-121129057D01*
X175187473Y-121294443D01*
X175187470Y-121294450D01*
X175158737Y-121382883D01*
X175128458Y-121476072D01*
X175108496Y-121666000D01*
X173475751Y-121666000D01*
X173459040Y-121637056D01*
X173331253Y-121495134D01*
X173176752Y-121382882D01*
X173002288Y-121305206D01*
X173002286Y-121305205D01*
X172815487Y-121265500D01*
X172624513Y-121265500D01*
X172437714Y-121305205D01*
X172263246Y-121382883D01*
X172108745Y-121495135D01*
X171980959Y-121637057D01*
X171885473Y-121802443D01*
X171885470Y-121802450D01*
X171826459Y-121984068D01*
X171826458Y-121984072D01*
X171806496Y-122174000D01*
X168750412Y-122174000D01*
X168728527Y-122106644D01*
X168633040Y-121941256D01*
X168505253Y-121799334D01*
X168350752Y-121687082D01*
X168176288Y-121609406D01*
X168176286Y-121609405D01*
X167989487Y-121569700D01*
X167798513Y-121569700D01*
X167611714Y-121609405D01*
X167437246Y-121687083D01*
X167282745Y-121799335D01*
X167154959Y-121941257D01*
X167059473Y-122106643D01*
X167059470Y-122106650D01*
X167000459Y-122288268D01*
X167000458Y-122288272D01*
X166980496Y-122478200D01*
X153348269Y-122478200D01*
X153358126Y-120142000D01*
X155042496Y-120142000D01*
X155062458Y-120331928D01*
X155062459Y-120331931D01*
X155121470Y-120513549D01*
X155121473Y-120513556D01*
X155216960Y-120678944D01*
X155344747Y-120820866D01*
X155499248Y-120933118D01*
X155673712Y-121010794D01*
X155860513Y-121050500D01*
X156051487Y-121050500D01*
X156238288Y-121010794D01*
X156412752Y-120933118D01*
X156567253Y-120820866D01*
X156625851Y-120755786D01*
X156685334Y-120719139D01*
X156755191Y-120720468D01*
X156810148Y-120755785D01*
X156868747Y-120820866D01*
X157023248Y-120933118D01*
X157197712Y-121010794D01*
X157384513Y-121050500D01*
X157575487Y-121050500D01*
X157762288Y-121010794D01*
X157936752Y-120933118D01*
X158091253Y-120820866D01*
X158219040Y-120678944D01*
X158314527Y-120513556D01*
X158373542Y-120331928D01*
X158393504Y-120142000D01*
X158373542Y-119952072D01*
X158352724Y-119888000D01*
X176886496Y-119888000D01*
X176906458Y-120077928D01*
X176906459Y-120077931D01*
X176965470Y-120259549D01*
X176965473Y-120259556D01*
X177060960Y-120424944D01*
X177188747Y-120566866D01*
X177343248Y-120679118D01*
X177517712Y-120756794D01*
X177704513Y-120796500D01*
X177895487Y-120796500D01*
X178082288Y-120756794D01*
X178256752Y-120679118D01*
X178411253Y-120566866D01*
X178539040Y-120424944D01*
X178634527Y-120259556D01*
X178672724Y-120142000D01*
X197206496Y-120142000D01*
X197226458Y-120331928D01*
X197226459Y-120331931D01*
X197285470Y-120513549D01*
X197285473Y-120513556D01*
X197380960Y-120678944D01*
X197508747Y-120820866D01*
X197663248Y-120933118D01*
X197837712Y-121010794D01*
X198024513Y-121050500D01*
X198215487Y-121050500D01*
X198402288Y-121010794D01*
X198576752Y-120933118D01*
X198731253Y-120820866D01*
X198859040Y-120678944D01*
X198954527Y-120513556D01*
X199013542Y-120331928D01*
X199033504Y-120142000D01*
X199013542Y-119952072D01*
X198954527Y-119770444D01*
X198859040Y-119605056D01*
X198731253Y-119463134D01*
X198576752Y-119350882D01*
X198402288Y-119273206D01*
X198402286Y-119273205D01*
X198215487Y-119233500D01*
X198024513Y-119233500D01*
X197837714Y-119273205D01*
X197663246Y-119350883D01*
X197508745Y-119463135D01*
X197380959Y-119605057D01*
X197285473Y-119770443D01*
X197285470Y-119770450D01*
X197247276Y-119888000D01*
X197226458Y-119952072D01*
X197206496Y-120142000D01*
X178672724Y-120142000D01*
X178693542Y-120077928D01*
X178713504Y-119888000D01*
X178693542Y-119698072D01*
X178634527Y-119516444D01*
X178539040Y-119351056D01*
X178411253Y-119209134D01*
X178256752Y-119096882D01*
X178082288Y-119019206D01*
X178082286Y-119019205D01*
X177895487Y-118979500D01*
X177704513Y-118979500D01*
X177517714Y-119019205D01*
X177343246Y-119096883D01*
X177188745Y-119209135D01*
X177060959Y-119351057D01*
X176965473Y-119516443D01*
X176965470Y-119516450D01*
X176906459Y-119698068D01*
X176906458Y-119698072D01*
X176886496Y-119888000D01*
X158352724Y-119888000D01*
X158314527Y-119770444D01*
X158219040Y-119605056D01*
X158091253Y-119463134D01*
X157936752Y-119350882D01*
X157762288Y-119273206D01*
X157762286Y-119273205D01*
X157575487Y-119233500D01*
X157384513Y-119233500D01*
X157197714Y-119273205D01*
X157023246Y-119350883D01*
X156868744Y-119463136D01*
X156810148Y-119528213D01*
X156750661Y-119564861D01*
X156680804Y-119563530D01*
X156625849Y-119528212D01*
X156615252Y-119516443D01*
X156567253Y-119463134D01*
X156412752Y-119350882D01*
X156238288Y-119273206D01*
X156238286Y-119273205D01*
X156051487Y-119233500D01*
X155860513Y-119233500D01*
X155673714Y-119273205D01*
X155499246Y-119350883D01*
X155344745Y-119463135D01*
X155216959Y-119605057D01*
X155121473Y-119770443D01*
X155121470Y-119770450D01*
X155083276Y-119888000D01*
X155062458Y-119952072D01*
X155042496Y-120142000D01*
X153358126Y-120142000D01*
X153385991Y-113538000D01*
X181966496Y-113538000D01*
X181986458Y-113727928D01*
X181986459Y-113727931D01*
X182045470Y-113909549D01*
X182045473Y-113909556D01*
X182140960Y-114074944D01*
X182268747Y-114216866D01*
X182423248Y-114329118D01*
X182597712Y-114406794D01*
X182784513Y-114446500D01*
X182975487Y-114446500D01*
X183162288Y-114406794D01*
X183336752Y-114329118D01*
X183491253Y-114216866D01*
X183619040Y-114074944D01*
X183714527Y-113909556D01*
X183773542Y-113727928D01*
X183793504Y-113538000D01*
X183773542Y-113348072D01*
X183714527Y-113166444D01*
X183619040Y-113001056D01*
X183491253Y-112859134D01*
X183336752Y-112746882D01*
X183162288Y-112669206D01*
X183162286Y-112669205D01*
X182975487Y-112629500D01*
X182784513Y-112629500D01*
X182597714Y-112669205D01*
X182423246Y-112746883D01*
X182268745Y-112859135D01*
X182140959Y-113001057D01*
X182045473Y-113166443D01*
X182045470Y-113166450D01*
X181986459Y-113348068D01*
X181986458Y-113348072D01*
X181966496Y-113538000D01*
X153385991Y-113538000D01*
X153400422Y-110117844D01*
X163750000Y-110117844D01*
X163756401Y-110177372D01*
X163756403Y-110177379D01*
X163806645Y-110312086D01*
X163806649Y-110312093D01*
X163892809Y-110427187D01*
X163892812Y-110427190D01*
X164007906Y-110513350D01*
X164007913Y-110513354D01*
X164142620Y-110563596D01*
X164142627Y-110563598D01*
X164202155Y-110569999D01*
X164202172Y-110570000D01*
X164850000Y-110570000D01*
X164850000Y-109832301D01*
X164869685Y-109765262D01*
X164922489Y-109719507D01*
X164991647Y-109709563D01*
X165064237Y-109720000D01*
X165064238Y-109720000D01*
X165135762Y-109720000D01*
X165135763Y-109720000D01*
X165208353Y-109709563D01*
X165277512Y-109719507D01*
X165330315Y-109765262D01*
X165350000Y-109832301D01*
X165349999Y-110569999D01*
X165350000Y-110570000D01*
X165997828Y-110570000D01*
X165997844Y-110569999D01*
X166057372Y-110563598D01*
X166057379Y-110563596D01*
X166192086Y-110513354D01*
X166192093Y-110513350D01*
X166307187Y-110427190D01*
X166307190Y-110427187D01*
X166393350Y-110312093D01*
X166393354Y-110312086D01*
X166439681Y-110187877D01*
X166481552Y-110131943D01*
X166547016Y-110107526D01*
X166615289Y-110122377D01*
X166647089Y-110147223D01*
X166716760Y-110222906D01*
X166894424Y-110361189D01*
X166894425Y-110361189D01*
X166894427Y-110361191D01*
X167016378Y-110427187D01*
X167092426Y-110468342D01*
X167305365Y-110541444D01*
X167527431Y-110578500D01*
X167752569Y-110578500D01*
X167974635Y-110541444D01*
X168187574Y-110468342D01*
X168385576Y-110361189D01*
X168563240Y-110222906D01*
X168715722Y-110057268D01*
X168806193Y-109918790D01*
X168859338Y-109873437D01*
X168928569Y-109864013D01*
X168991905Y-109893515D01*
X169013804Y-109918787D01*
X169104278Y-110057268D01*
X169104283Y-110057273D01*
X169104284Y-110057276D01*
X169224513Y-110187877D01*
X169256760Y-110222906D01*
X169434424Y-110361189D01*
X169434425Y-110361189D01*
X169434427Y-110361191D01*
X169556378Y-110427187D01*
X169632426Y-110468342D01*
X169845365Y-110541444D01*
X170067431Y-110578500D01*
X170292569Y-110578500D01*
X170514635Y-110541444D01*
X170727574Y-110468342D01*
X170925576Y-110361189D01*
X171103240Y-110222906D01*
X171255722Y-110057268D01*
X171346193Y-109918790D01*
X171399338Y-109873437D01*
X171468569Y-109864013D01*
X171531905Y-109893515D01*
X171553804Y-109918787D01*
X171644278Y-110057268D01*
X171644283Y-110057273D01*
X171644284Y-110057276D01*
X171764513Y-110187877D01*
X171796760Y-110222906D01*
X171974424Y-110361189D01*
X171974425Y-110361189D01*
X171974427Y-110361191D01*
X172096378Y-110427187D01*
X172172426Y-110468342D01*
X172385365Y-110541444D01*
X172607431Y-110578500D01*
X172832569Y-110578500D01*
X173054635Y-110541444D01*
X173267574Y-110468342D01*
X173465576Y-110361189D01*
X173643240Y-110222906D01*
X173795722Y-110057268D01*
X173886193Y-109918791D01*
X173939336Y-109873437D01*
X174008567Y-109864013D01*
X174071903Y-109893515D01*
X174093807Y-109918793D01*
X174184276Y-110057265D01*
X174184284Y-110057276D01*
X174304513Y-110187877D01*
X174336760Y-110222906D01*
X174514424Y-110361189D01*
X174514425Y-110361189D01*
X174514427Y-110361191D01*
X174636378Y-110427187D01*
X174712426Y-110468342D01*
X174925365Y-110541444D01*
X175147431Y-110578500D01*
X175372569Y-110578500D01*
X175594635Y-110541444D01*
X175807574Y-110468342D01*
X176005576Y-110361189D01*
X176183240Y-110222906D01*
X176335722Y-110057268D01*
X176426193Y-109918790D01*
X176479338Y-109873437D01*
X176548569Y-109864013D01*
X176611905Y-109893515D01*
X176633804Y-109918787D01*
X176724278Y-110057268D01*
X176724283Y-110057273D01*
X176724284Y-110057276D01*
X176844513Y-110187877D01*
X176876760Y-110222906D01*
X177054424Y-110361189D01*
X177054425Y-110361189D01*
X177054427Y-110361191D01*
X177176378Y-110427187D01*
X177252426Y-110468342D01*
X177465365Y-110541444D01*
X177687431Y-110578500D01*
X177912569Y-110578500D01*
X178134635Y-110541444D01*
X178347574Y-110468342D01*
X178545576Y-110361189D01*
X178723240Y-110222906D01*
X178875722Y-110057268D01*
X178966193Y-109918790D01*
X179019338Y-109873437D01*
X179088569Y-109864013D01*
X179151905Y-109893515D01*
X179173804Y-109918787D01*
X179264278Y-110057268D01*
X179264283Y-110057273D01*
X179264284Y-110057276D01*
X179384513Y-110187877D01*
X179416760Y-110222906D01*
X179594424Y-110361189D01*
X179594425Y-110361189D01*
X179594427Y-110361191D01*
X179716378Y-110427187D01*
X179792426Y-110468342D01*
X180005365Y-110541444D01*
X180227431Y-110578500D01*
X180452569Y-110578500D01*
X180674635Y-110541444D01*
X180887574Y-110468342D01*
X181085576Y-110361189D01*
X181263240Y-110222906D01*
X181415722Y-110057268D01*
X181506193Y-109918790D01*
X181559338Y-109873437D01*
X181628569Y-109864013D01*
X181691905Y-109893515D01*
X181713804Y-109918787D01*
X181804278Y-110057268D01*
X181804283Y-110057273D01*
X181804284Y-110057276D01*
X181924513Y-110187877D01*
X181956760Y-110222906D01*
X182134424Y-110361189D01*
X182134425Y-110361189D01*
X182134427Y-110361191D01*
X182256378Y-110427187D01*
X182332426Y-110468342D01*
X182545365Y-110541444D01*
X182767431Y-110578500D01*
X182992569Y-110578500D01*
X183214635Y-110541444D01*
X183427574Y-110468342D01*
X183625576Y-110361189D01*
X183803240Y-110222906D01*
X183955722Y-110057268D01*
X184046193Y-109918791D01*
X184099336Y-109873437D01*
X184168567Y-109864013D01*
X184231903Y-109893515D01*
X184253807Y-109918793D01*
X184344276Y-110057265D01*
X184344284Y-110057276D01*
X184464513Y-110187877D01*
X184496760Y-110222906D01*
X184674424Y-110361189D01*
X184674425Y-110361189D01*
X184674427Y-110361191D01*
X184796378Y-110427187D01*
X184872426Y-110468342D01*
X185085365Y-110541444D01*
X185307431Y-110578500D01*
X185532569Y-110578500D01*
X185754635Y-110541444D01*
X185967574Y-110468342D01*
X186165576Y-110361189D01*
X186343240Y-110222906D01*
X186495722Y-110057268D01*
X186586193Y-109918790D01*
X186639338Y-109873437D01*
X186708569Y-109864013D01*
X186771905Y-109893515D01*
X186793804Y-109918787D01*
X186884278Y-110057268D01*
X186884283Y-110057273D01*
X186884284Y-110057276D01*
X187004513Y-110187877D01*
X187036760Y-110222906D01*
X187214424Y-110361189D01*
X187214425Y-110361189D01*
X187214427Y-110361191D01*
X187336378Y-110427187D01*
X187412426Y-110468342D01*
X187625365Y-110541444D01*
X187847431Y-110578500D01*
X188072569Y-110578500D01*
X188294635Y-110541444D01*
X188507574Y-110468342D01*
X188705576Y-110361189D01*
X188883240Y-110222906D01*
X189035722Y-110057268D01*
X189126193Y-109918790D01*
X189179338Y-109873437D01*
X189248569Y-109864013D01*
X189311905Y-109893515D01*
X189333804Y-109918787D01*
X189424278Y-110057268D01*
X189424283Y-110057273D01*
X189424284Y-110057276D01*
X189544513Y-110187877D01*
X189576760Y-110222906D01*
X189754424Y-110361189D01*
X189754425Y-110361189D01*
X189754427Y-110361191D01*
X189876378Y-110427187D01*
X189952426Y-110468342D01*
X190165365Y-110541444D01*
X190387431Y-110578500D01*
X190612569Y-110578500D01*
X190834635Y-110541444D01*
X191047574Y-110468342D01*
X191245576Y-110361189D01*
X191423240Y-110222906D01*
X191575722Y-110057268D01*
X191698860Y-109868791D01*
X191789296Y-109662616D01*
X191844564Y-109444368D01*
X191845768Y-109429844D01*
X191863156Y-109220005D01*
X191863156Y-109219994D01*
X191844565Y-108995640D01*
X191844563Y-108995628D01*
X191789296Y-108777385D01*
X191768702Y-108730436D01*
X191698860Y-108571209D01*
X191682706Y-108546484D01*
X191575723Y-108382734D01*
X191575715Y-108382723D01*
X191423243Y-108217097D01*
X191423238Y-108217092D01*
X191245577Y-108078812D01*
X191245572Y-108078808D01*
X191047580Y-107971661D01*
X191047577Y-107971659D01*
X191047574Y-107971658D01*
X191047571Y-107971657D01*
X191047569Y-107971656D01*
X190834637Y-107898556D01*
X190612569Y-107861500D01*
X190387431Y-107861500D01*
X190165362Y-107898556D01*
X189952430Y-107971656D01*
X189952419Y-107971661D01*
X189754427Y-108078808D01*
X189754422Y-108078812D01*
X189576761Y-108217092D01*
X189576756Y-108217097D01*
X189424284Y-108382723D01*
X189424276Y-108382734D01*
X189333808Y-108521206D01*
X189280662Y-108566562D01*
X189211431Y-108575986D01*
X189148095Y-108546484D01*
X189126192Y-108521206D01*
X189035723Y-108382734D01*
X189035715Y-108382723D01*
X188883243Y-108217097D01*
X188883238Y-108217092D01*
X188705577Y-108078812D01*
X188705572Y-108078808D01*
X188507580Y-107971661D01*
X188507577Y-107971659D01*
X188507574Y-107971658D01*
X188507571Y-107971657D01*
X188507569Y-107971656D01*
X188294637Y-107898556D01*
X188072569Y-107861500D01*
X187847431Y-107861500D01*
X187625362Y-107898556D01*
X187412430Y-107971656D01*
X187412419Y-107971661D01*
X187214427Y-108078808D01*
X187214422Y-108078812D01*
X187036761Y-108217092D01*
X187036756Y-108217097D01*
X186884284Y-108382723D01*
X186884276Y-108382734D01*
X186793808Y-108521206D01*
X186740662Y-108566562D01*
X186671431Y-108575986D01*
X186608095Y-108546484D01*
X186586192Y-108521206D01*
X186495723Y-108382734D01*
X186495715Y-108382723D01*
X186343243Y-108217097D01*
X186343238Y-108217092D01*
X186165577Y-108078812D01*
X186165572Y-108078808D01*
X185967580Y-107971661D01*
X185967577Y-107971659D01*
X185967574Y-107971658D01*
X185967571Y-107971657D01*
X185967569Y-107971656D01*
X185754637Y-107898556D01*
X185532569Y-107861500D01*
X185307431Y-107861500D01*
X185085362Y-107898556D01*
X184872430Y-107971656D01*
X184872419Y-107971661D01*
X184674427Y-108078808D01*
X184674422Y-108078812D01*
X184496761Y-108217092D01*
X184496756Y-108217097D01*
X184344284Y-108382723D01*
X184344276Y-108382734D01*
X184253807Y-108521206D01*
X184200660Y-108566563D01*
X184131429Y-108575986D01*
X184068093Y-108546483D01*
X184046191Y-108521206D01*
X183955722Y-108382732D01*
X183955717Y-108382727D01*
X183955715Y-108382723D01*
X183803243Y-108217097D01*
X183803238Y-108217092D01*
X183625577Y-108078812D01*
X183625572Y-108078808D01*
X183427580Y-107971661D01*
X183427577Y-107971659D01*
X183427574Y-107971658D01*
X183427571Y-107971657D01*
X183427569Y-107971656D01*
X183214637Y-107898556D01*
X182992569Y-107861500D01*
X182767431Y-107861500D01*
X182545362Y-107898556D01*
X182332430Y-107971656D01*
X182332419Y-107971661D01*
X182134427Y-108078808D01*
X182134422Y-108078812D01*
X181956761Y-108217092D01*
X181956756Y-108217097D01*
X181804284Y-108382723D01*
X181804276Y-108382734D01*
X181713808Y-108521206D01*
X181660662Y-108566562D01*
X181591431Y-108575986D01*
X181528095Y-108546484D01*
X181506192Y-108521206D01*
X181415723Y-108382734D01*
X181415715Y-108382723D01*
X181263243Y-108217097D01*
X181263238Y-108217092D01*
X181085577Y-108078812D01*
X181085572Y-108078808D01*
X180887580Y-107971661D01*
X180887577Y-107971659D01*
X180887574Y-107971658D01*
X180887571Y-107971657D01*
X180887569Y-107971656D01*
X180674637Y-107898556D01*
X180452569Y-107861500D01*
X180227431Y-107861500D01*
X180005362Y-107898556D01*
X179792430Y-107971656D01*
X179792419Y-107971661D01*
X179594427Y-108078808D01*
X179594422Y-108078812D01*
X179416761Y-108217092D01*
X179416756Y-108217097D01*
X179264284Y-108382723D01*
X179264276Y-108382734D01*
X179173808Y-108521206D01*
X179120662Y-108566562D01*
X179051431Y-108575986D01*
X178988095Y-108546484D01*
X178966192Y-108521206D01*
X178875723Y-108382734D01*
X178875715Y-108382723D01*
X178723243Y-108217097D01*
X178723238Y-108217092D01*
X178545577Y-108078812D01*
X178545572Y-108078808D01*
X178347580Y-107971661D01*
X178347577Y-107971659D01*
X178347574Y-107971658D01*
X178347571Y-107971657D01*
X178347569Y-107971656D01*
X178134637Y-107898556D01*
X177912569Y-107861500D01*
X177687431Y-107861500D01*
X177465362Y-107898556D01*
X177252430Y-107971656D01*
X177252419Y-107971661D01*
X177054427Y-108078808D01*
X177054422Y-108078812D01*
X176876761Y-108217092D01*
X176876756Y-108217097D01*
X176724284Y-108382723D01*
X176724276Y-108382734D01*
X176633808Y-108521206D01*
X176580662Y-108566562D01*
X176511431Y-108575986D01*
X176448095Y-108546484D01*
X176426192Y-108521206D01*
X176335723Y-108382734D01*
X176335715Y-108382723D01*
X176183243Y-108217097D01*
X176183238Y-108217092D01*
X176005577Y-108078812D01*
X176005572Y-108078808D01*
X175807580Y-107971661D01*
X175807577Y-107971659D01*
X175807574Y-107971658D01*
X175807571Y-107971657D01*
X175807569Y-107971656D01*
X175594637Y-107898556D01*
X175372569Y-107861500D01*
X175147431Y-107861500D01*
X174925362Y-107898556D01*
X174712430Y-107971656D01*
X174712419Y-107971661D01*
X174514427Y-108078808D01*
X174514422Y-108078812D01*
X174336761Y-108217092D01*
X174336756Y-108217097D01*
X174184284Y-108382723D01*
X174184276Y-108382734D01*
X174093807Y-108521206D01*
X174040660Y-108566563D01*
X173971429Y-108575986D01*
X173908093Y-108546483D01*
X173886191Y-108521206D01*
X173795722Y-108382732D01*
X173795717Y-108382727D01*
X173795715Y-108382723D01*
X173643243Y-108217097D01*
X173643238Y-108217092D01*
X173465577Y-108078812D01*
X173465572Y-108078808D01*
X173267580Y-107971661D01*
X173267577Y-107971659D01*
X173267574Y-107971658D01*
X173267571Y-107971657D01*
X173267569Y-107971656D01*
X173054637Y-107898556D01*
X172832569Y-107861500D01*
X172607431Y-107861500D01*
X172385362Y-107898556D01*
X172172430Y-107971656D01*
X172172419Y-107971661D01*
X171974427Y-108078808D01*
X171974422Y-108078812D01*
X171796761Y-108217092D01*
X171796756Y-108217097D01*
X171644284Y-108382723D01*
X171644276Y-108382734D01*
X171553808Y-108521206D01*
X171500662Y-108566562D01*
X171431431Y-108575986D01*
X171368095Y-108546484D01*
X171346192Y-108521206D01*
X171255723Y-108382734D01*
X171255715Y-108382723D01*
X171103243Y-108217097D01*
X171103238Y-108217092D01*
X170925577Y-108078812D01*
X170925572Y-108078808D01*
X170727580Y-107971661D01*
X170727577Y-107971659D01*
X170727574Y-107971658D01*
X170727571Y-107971657D01*
X170727569Y-107971656D01*
X170514637Y-107898556D01*
X170292569Y-107861500D01*
X170067431Y-107861500D01*
X169845362Y-107898556D01*
X169632430Y-107971656D01*
X169632419Y-107971661D01*
X169434427Y-108078808D01*
X169434422Y-108078812D01*
X169256761Y-108217092D01*
X169256756Y-108217097D01*
X169104284Y-108382723D01*
X169104276Y-108382734D01*
X169013808Y-108521206D01*
X168960662Y-108566562D01*
X168891431Y-108575986D01*
X168828095Y-108546484D01*
X168806192Y-108521206D01*
X168715723Y-108382734D01*
X168715715Y-108382723D01*
X168563243Y-108217097D01*
X168563238Y-108217092D01*
X168385577Y-108078812D01*
X168385572Y-108078808D01*
X168187580Y-107971661D01*
X168187577Y-107971659D01*
X168187574Y-107971658D01*
X168187571Y-107971657D01*
X168187569Y-107971656D01*
X167974637Y-107898556D01*
X167752569Y-107861500D01*
X167527431Y-107861500D01*
X167305362Y-107898556D01*
X167092430Y-107971656D01*
X167092419Y-107971661D01*
X166894427Y-108078808D01*
X166894422Y-108078812D01*
X166716761Y-108217092D01*
X166647092Y-108292773D01*
X166587205Y-108328763D01*
X166517367Y-108326662D01*
X166459751Y-108287137D01*
X166439681Y-108252122D01*
X166393354Y-108127913D01*
X166393350Y-108127906D01*
X166307190Y-108012812D01*
X166307187Y-108012809D01*
X166192093Y-107926649D01*
X166192086Y-107926645D01*
X166057379Y-107876403D01*
X166057372Y-107876401D01*
X165997844Y-107870000D01*
X165350000Y-107870000D01*
X165350000Y-108607698D01*
X165330315Y-108674737D01*
X165277511Y-108720492D01*
X165208355Y-108730436D01*
X165135766Y-108720000D01*
X165135763Y-108720000D01*
X165064237Y-108720000D01*
X165064233Y-108720000D01*
X164991645Y-108730436D01*
X164922487Y-108720492D01*
X164869684Y-108674736D01*
X164850000Y-108607698D01*
X164850000Y-107870000D01*
X164202155Y-107870000D01*
X164142627Y-107876401D01*
X164142620Y-107876403D01*
X164007913Y-107926645D01*
X164007906Y-107926649D01*
X163892812Y-108012809D01*
X163892809Y-108012812D01*
X163806649Y-108127906D01*
X163806645Y-108127913D01*
X163756403Y-108262620D01*
X163756401Y-108262627D01*
X163750000Y-108322155D01*
X163750000Y-108970000D01*
X164486653Y-108970000D01*
X164553692Y-108989685D01*
X164599447Y-109042489D01*
X164609391Y-109111647D01*
X164605631Y-109128933D01*
X164600000Y-109148111D01*
X164600000Y-109291888D01*
X164605631Y-109311067D01*
X164605630Y-109380936D01*
X164567855Y-109439714D01*
X164504299Y-109468738D01*
X164486653Y-109470000D01*
X163750000Y-109470000D01*
X163750000Y-110117844D01*
X153400422Y-110117844D01*
X153415481Y-106548828D01*
X153435448Y-106481875D01*
X153488445Y-106436343D01*
X153538826Y-106425356D01*
X201806393Y-106172647D01*
X201873534Y-106191980D01*
G37*
%TD.AperFunction*%
%TD*%
M02*
