M48
; DRILL file {KiCad 7.0.7} date Tue Dec 26 11:08:41 2023
; FORMAT={-:-/ absolute / inch / decimal}
; #@! TF.CreationDate,2023-12-26T11:08:41+08:00
; #@! TF.GenerationSoftware,Kicad,Pcbnew,7.0.7
; #@! TF.FileFunction,Plated,1,4,PTH
FMAT,2
INCH
; #@! TA.AperFunction,Plated,PTH,ViaDrill
T1C0.0157
; #@! TA.AperFunction,Plated,PTH,ComponentDrill
T2C0.0236
; #@! TA.AperFunction,Plated,PTH,ComponentDrill
T3C0.0300
; #@! TA.AperFunction,Plated,PTH,ComponentDrill
T4C0.0394
%
G90
G05
T1
X6.07Y-5.4
X6.1193Y-6.437
X6.14Y-4.73
X6.14Y-5.03
X6.17Y-5.75
X6.2Y-4.73
X6.2025Y-5.03
X6.22Y-5.6
X6.2807Y-4.5685
X6.2807Y-4.8685
X6.3238Y-6.0402
X6.3238Y-6.302
X6.37Y-6.51
X6.41Y-5.78
X6.41Y-5.9
X6.47Y-5.34
X6.49Y-6.09
X6.49Y-6.24
X6.51Y-5.74
X6.52Y-5.6
X6.53Y-4.883
X6.57Y-5.07
X6.57Y-5.2
X6.61Y-4.822
X6.61Y-6.38
X6.63Y-6.03
X6.6686Y-5.8786
X6.6896Y-4.883
X6.7181Y-5.5303
X6.73Y-5.77
X6.75Y-5.6
X6.76Y-5.51
X6.76Y-6.09
X6.79Y-5.6
X6.79Y-5.99
X6.8Y-4.81
X6.82Y-6.302
X6.85Y-5.62
X6.85Y-6.09
X6.89Y-5.62
X6.93Y-4.79
X6.93Y-5.62
X6.97Y-5.6214
X6.97Y-6.36
X6.97Y-6.4
X6.9702Y-5.9202
X7.0Y-4.72
X7.0104Y-6.15
X7.0172Y-5.7672
X7.0389Y-6.1829
X7.04Y-4.98
X7.04Y-5.26
X7.04Y-5.4
X7.04Y-5.9474
X7.07Y-5.48
X7.0798Y-5.3198
X7.0798Y-5.8198
X7.12Y-5.61
X7.14Y-5.77
X7.16Y-5.21
X7.16Y-5.69
X7.16Y-6.107
X7.168Y-5.26
X7.17Y-5.65
X7.2Y-4.47
X7.2Y-5.96
X7.23Y-5.1
X7.2893Y-6.2385
X7.29Y-5.8155
X7.29Y-6.51
X7.32Y-5.77
X7.34Y-5.4
X7.54Y-6.39
X7.57Y-5.86
X7.57Y-5.97
X7.6Y-5.56
X7.6Y-5.7
X7.6699Y-6.2
X7.71Y-5.53
X7.7193Y-4.5685
X7.7193Y-4.8685
X7.77Y-5.909
X7.8Y-4.73
X7.8Y-5.03
X7.8Y-5.44
X7.9Y-5.22
T3
X7.9Y-5.6425
X7.9Y-5.7213
T4
X6.2Y-5.3498
X6.2Y-5.4498
X6.5Y-4.3
X6.6Y-4.3
X6.7Y-4.3
X6.8Y-4.3
X6.9Y-4.3
X7.0Y-4.3
X7.1Y-4.3
X7.2Y-4.3
X7.3Y-4.3
X7.4Y-4.3
X7.5Y-4.3
X7.9Y-6.0
X7.9Y-6.1
X7.9Y-6.2
X7.9Y-6.3
X7.9Y-6.4
T2
G00X6.1472Y-6.0
M15
G01X6.1236Y-6.0
M16
G05
G00X6.1472Y-6.3402
M15
G01X6.1236Y-6.3402
M16
G05
G00X6.3217Y-6.0
M15
G01X6.2783Y-6.0
M16
G05
G00X6.3217Y-6.3402
M15
G01X6.2783Y-6.3402
M16
G05
T0
M30
