%TF.GenerationSoftware,KiCad,Pcbnew,7.0.7*%
%TF.CreationDate,2023-12-26T11:08:44+08:00*%
%TF.ProjectId,Dice_Roller_SAMD,44696365-5f52-46f6-9c6c-65725f53414d,rev?*%
%TF.SameCoordinates,Original*%
%TF.FileFunction,Paste,Top*%
%TF.FilePolarity,Positive*%
%FSLAX46Y46*%
G04 Gerber Fmt 4.6, Leading zero omitted, Abs format (unit mm)*
G04 Created by KiCad (PCBNEW 7.0.7) date 2023-12-26 11:08:44*
%MOMM*%
%LPD*%
G01*
G04 APERTURE LIST*
G04 Aperture macros list*
%AMRoundRect*
0 Rectangle with rounded corners*
0 $1 Rounding radius*
0 $2 $3 $4 $5 $6 $7 $8 $9 X,Y pos of 4 corners*
0 Add a 4 corners polygon primitive as box body*
4,1,4,$2,$3,$4,$5,$6,$7,$8,$9,$2,$3,0*
0 Add four circle primitives for the rounded corners*
1,1,$1+$1,$2,$3*
1,1,$1+$1,$4,$5*
1,1,$1+$1,$6,$7*
1,1,$1+$1,$8,$9*
0 Add four rect primitives between the rounded corners*
20,1,$1+$1,$2,$3,$4,$5,0*
20,1,$1+$1,$4,$5,$6,$7,0*
20,1,$1+$1,$6,$7,$8,$9,0*
20,1,$1+$1,$8,$9,$2,$3,0*%
G04 Aperture macros list end*
%ADD10RoundRect,0.200000X0.275000X-0.200000X0.275000X0.200000X-0.275000X0.200000X-0.275000X-0.200000X0*%
%ADD11R,1.320800X0.558800*%
%ADD12RoundRect,0.250000X0.250000X0.475000X-0.250000X0.475000X-0.250000X-0.475000X0.250000X-0.475000X0*%
%ADD13RoundRect,0.225000X0.250000X-0.225000X0.250000X0.225000X-0.250000X0.225000X-0.250000X-0.225000X0*%
%ADD14R,0.304800X0.330200*%
%ADD15R,0.330200X0.304800*%
%ADD16R,0.863600X1.244600*%
%ADD17RoundRect,0.218750X0.256250X-0.218750X0.256250X0.218750X-0.256250X0.218750X-0.256250X-0.218750X0*%
%ADD18RoundRect,0.200000X0.200000X0.275000X-0.200000X0.275000X-0.200000X-0.275000X0.200000X-0.275000X0*%
%ADD19RoundRect,0.150000X-0.825000X-0.150000X0.825000X-0.150000X0.825000X0.150000X-0.825000X0.150000X0*%
%ADD20R,0.900000X1.000000*%
%ADD21RoundRect,0.225000X0.225000X0.250000X-0.225000X0.250000X-0.225000X-0.250000X0.225000X-0.250000X0*%
%ADD22R,1.244600X0.863600*%
%ADD23RoundRect,0.200000X-0.200000X-0.275000X0.200000X-0.275000X0.200000X0.275000X-0.200000X0.275000X0*%
%ADD24RoundRect,0.225000X-0.250000X0.225000X-0.250000X-0.225000X0.250000X-0.225000X0.250000X0.225000X0*%
%ADD25R,1.320800X0.508000*%
%ADD26R,1.295400X0.965200*%
%ADD27RoundRect,0.200000X-0.275000X0.200000X-0.275000X-0.200000X0.275000X-0.200000X0.275000X0.200000X0*%
%ADD28R,0.900000X1.500000*%
%ADD29R,1.003300X0.508000*%
%ADD30RoundRect,0.075000X0.662500X0.075000X-0.662500X0.075000X-0.662500X-0.075000X0.662500X-0.075000X0*%
%ADD31RoundRect,0.075000X0.075000X0.662500X-0.075000X0.662500X-0.075000X-0.662500X0.075000X-0.662500X0*%
%ADD32RoundRect,0.225000X-0.225000X-0.375000X0.225000X-0.375000X0.225000X0.375000X-0.225000X0.375000X0*%
%ADD33R,1.070000X0.300000*%
%ADD34R,1.150000X0.300000*%
%ADD35R,1.800000X1.750000*%
G04 APERTURE END LIST*
D10*
%TO.C,R23*%
X173228000Y-156578000D03*
X173228000Y-154928000D03*
%TD*%
D11*
%TO.C,Q1*%
X192786000Y-136194800D03*
X192786000Y-138125200D03*
X194818000Y-137160000D03*
%TD*%
D12*
%TO.C,L1*%
X178562000Y-159766000D03*
X176662000Y-159766000D03*
%TD*%
D13*
%TO.C,C10*%
X168910000Y-131318000D03*
X168910000Y-129768000D03*
%TD*%
D14*
%TO.C,U5*%
X157470102Y-143270100D03*
X156970101Y-143270100D03*
X156470101Y-143270100D03*
X155970100Y-143270100D03*
D15*
X155960202Y-143779999D03*
X155960202Y-144279999D03*
D14*
X155970100Y-144789898D03*
X156470101Y-144789898D03*
X156970101Y-144789898D03*
X157470102Y-144789898D03*
D15*
X157480000Y-144279999D03*
X157480000Y-143779999D03*
%TD*%
D16*
%TO.C,C1*%
X194894200Y-144780000D03*
X193040000Y-144780000D03*
%TD*%
D10*
%TO.C,R22*%
X170688000Y-156578000D03*
X170688000Y-154928000D03*
%TD*%
D17*
%TO.C,CHG1*%
X197358000Y-151663500D03*
X197358000Y-150088500D03*
%TD*%
D10*
%TO.C,R19*%
X160274000Y-135445000D03*
X160274000Y-133795000D03*
%TD*%
D18*
%TO.C,R13*%
X162115000Y-145796000D03*
X160465000Y-145796000D03*
%TD*%
D19*
%TO.C,U2*%
X178692000Y-129794000D03*
X178692000Y-131064000D03*
X178692000Y-132334000D03*
X178692000Y-133604000D03*
X183642000Y-133604000D03*
X183642000Y-132334000D03*
X183642000Y-131064000D03*
X183642000Y-129794000D03*
%TD*%
D20*
%TO.C,SW4*%
X196070000Y-116040000D03*
X200170000Y-116040000D03*
X196070000Y-117640000D03*
X200170000Y-117640000D03*
%TD*%
D21*
%TO.C,C9*%
X191288000Y-148717000D03*
X189738000Y-148717000D03*
%TD*%
D22*
%TO.C,C3*%
X172720000Y-124028200D03*
X172720000Y-122174000D03*
%TD*%
D23*
%TO.C,R20*%
X165482000Y-143764000D03*
X167132000Y-143764000D03*
%TD*%
D24*
%TO.C,C5*%
X161816000Y-163550000D03*
X161816000Y-165100000D03*
%TD*%
D25*
%TO.C,U3*%
X198069200Y-137160000D03*
X198069200Y-138110001D03*
X198069200Y-139060002D03*
X200660000Y-139060002D03*
X200660000Y-137160000D03*
%TD*%
D26*
%TO.C,X2*%
X187452000Y-148869400D03*
X187452000Y-151612600D03*
%TD*%
D27*
%TO.C,R10*%
X166116000Y-136652000D03*
X166116000Y-138302000D03*
%TD*%
D16*
%TO.C,C2*%
X188468000Y-137160000D03*
X186613800Y-137160000D03*
%TD*%
D28*
%TO.C,LED1*%
X191516000Y-162380000D03*
X194816000Y-162380000D03*
X194816000Y-157480000D03*
X191516000Y-157480000D03*
%TD*%
D18*
%TO.C,R16*%
X157543000Y-127762000D03*
X155893000Y-127762000D03*
%TD*%
D27*
%TO.C,R11*%
X164084000Y-136652000D03*
X164084000Y-138302000D03*
%TD*%
D13*
%TO.C,C4*%
X166878000Y-131318000D03*
X166878000Y-129768000D03*
%TD*%
D20*
%TO.C,RST1*%
X159530000Y-165100000D03*
X155430000Y-165100000D03*
X159530000Y-163500000D03*
X155430000Y-163500000D03*
%TD*%
D27*
%TO.C,R14*%
X188214000Y-158878000D03*
X188214000Y-160528000D03*
%TD*%
D18*
%TO.C,R12*%
X162115000Y-143764000D03*
X160465000Y-143764000D03*
%TD*%
D17*
%TO.C,L2*%
X154178000Y-137211000D03*
X154178000Y-135636000D03*
%TD*%
D29*
%TO.C,U4*%
X193040000Y-140339998D03*
X193040000Y-141289999D03*
X193040000Y-142240000D03*
X195745100Y-142240000D03*
X195745100Y-140339998D03*
%TD*%
D30*
%TO.C,U1*%
X183752500Y-150487500D03*
X183752500Y-149987500D03*
X183752500Y-149487500D03*
X183752500Y-148987500D03*
X183752500Y-148487500D03*
X183752500Y-147987500D03*
X183752500Y-147487500D03*
X183752500Y-146987500D03*
X183752500Y-146487500D03*
X183752500Y-145987500D03*
X183752500Y-145487500D03*
X183752500Y-144987500D03*
X183752500Y-144487500D03*
X183752500Y-143987500D03*
X183752500Y-143487500D03*
X183752500Y-142987500D03*
D31*
X181840000Y-141075000D03*
X181340000Y-141075000D03*
X180840000Y-141075000D03*
X180340000Y-141075000D03*
X179840000Y-141075000D03*
X179340000Y-141075000D03*
X178840000Y-141075000D03*
X178340000Y-141075000D03*
X177840000Y-141075000D03*
X177340000Y-141075000D03*
X176840000Y-141075000D03*
X176340000Y-141075000D03*
X175840000Y-141075000D03*
X175340000Y-141075000D03*
X174840000Y-141075000D03*
X174340000Y-141075000D03*
D30*
X172427500Y-142987500D03*
X172427500Y-143487500D03*
X172427500Y-143987500D03*
X172427500Y-144487500D03*
X172427500Y-144987500D03*
X172427500Y-145487500D03*
X172427500Y-145987500D03*
X172427500Y-146487500D03*
X172427500Y-146987500D03*
X172427500Y-147487500D03*
X172427500Y-147987500D03*
X172427500Y-148487500D03*
X172427500Y-148987500D03*
X172427500Y-149487500D03*
X172427500Y-149987500D03*
X172427500Y-150487500D03*
D31*
X174340000Y-152400000D03*
X174840000Y-152400000D03*
X175340000Y-152400000D03*
X175840000Y-152400000D03*
X176340000Y-152400000D03*
X176840000Y-152400000D03*
X177340000Y-152400000D03*
X177840000Y-152400000D03*
X178340000Y-152400000D03*
X178840000Y-152400000D03*
X179340000Y-152400000D03*
X179840000Y-152400000D03*
X180340000Y-152400000D03*
X180840000Y-152400000D03*
X181340000Y-152400000D03*
X181840000Y-152400000D03*
%TD*%
D27*
%TO.C,R1*%
X178816000Y-126366000D03*
X178816000Y-128016000D03*
%TD*%
D23*
%TO.C,R18*%
X196470000Y-127762000D03*
X198120000Y-127762000D03*
%TD*%
D13*
%TO.C,C12*%
X170942000Y-131318000D03*
X170942000Y-129768000D03*
%TD*%
D32*
%TO.C,D1*%
X189232000Y-133350000D03*
X192532000Y-133350000D03*
%TD*%
D23*
%TO.C,R17*%
X196470000Y-120142000D03*
X198120000Y-120142000D03*
%TD*%
D20*
%TO.C,SW3*%
X155430000Y-123660000D03*
X159530000Y-123660000D03*
X155430000Y-125260000D03*
X159530000Y-125260000D03*
%TD*%
D18*
%TO.C,R2*%
X164846000Y-158496000D03*
X163196000Y-158496000D03*
%TD*%
%TO.C,R3*%
X164846000Y-154686000D03*
X163196000Y-154686000D03*
%TD*%
%TO.C,R15*%
X157480000Y-120142000D03*
X155830000Y-120142000D03*
%TD*%
D22*
%TO.C,C11*%
X170180000Y-124028200D03*
X170180000Y-122174000D03*
%TD*%
D23*
%TO.C,R8*%
X168276000Y-153162000D03*
X169926000Y-153162000D03*
%TD*%
D20*
%TO.C,SW2*%
X155430000Y-116040000D03*
X159530000Y-116040000D03*
X155430000Y-117640000D03*
X159530000Y-117640000D03*
%TD*%
D13*
%TO.C,C13*%
X165862000Y-124028200D03*
X165862000Y-122478200D03*
%TD*%
D10*
%TO.C,R6*%
X162814000Y-151764000D03*
X162814000Y-150114000D03*
%TD*%
D27*
%TO.C,R7*%
X189230000Y-140399000D03*
X189230000Y-142049000D03*
%TD*%
D22*
%TO.C,C7*%
X181864000Y-156972000D03*
X181864000Y-155117800D03*
%TD*%
D17*
%TO.C,CHG3*%
X173228000Y-160071000D03*
X173228000Y-158496000D03*
%TD*%
D10*
%TO.C,R4*%
X195326000Y-151663500D03*
X195326000Y-150013500D03*
%TD*%
D33*
%TO.C,J1*%
X160625000Y-153370000D03*
X160625000Y-154170000D03*
D34*
X160585000Y-155470000D03*
X160585000Y-156470000D03*
X160585000Y-156970000D03*
X160585000Y-157970000D03*
D33*
X160625000Y-159270000D03*
X160625000Y-160070000D03*
X160625000Y-159770000D03*
X160625000Y-158970000D03*
D34*
X160585000Y-158470000D03*
X160585000Y-157470000D03*
X160585000Y-155970000D03*
X160585000Y-154970000D03*
D33*
X160625000Y-154470000D03*
X160625000Y-153670000D03*
%TD*%
D10*
%TO.C,R5*%
X200660000Y-134238000D03*
X200660000Y-132588000D03*
%TD*%
D27*
%TO.C,R9*%
X167894000Y-162180000D03*
X167894000Y-163830000D03*
%TD*%
D35*
%TO.C,D2*%
X185147000Y-158459000D03*
X185147000Y-165609000D03*
%TD*%
D17*
%TO.C,CHG2*%
X170688000Y-160071000D03*
X170688000Y-158496000D03*
%TD*%
D13*
%TO.C,C6*%
X180086000Y-156972000D03*
X180086000Y-155422000D03*
%TD*%
%TO.C,C14*%
X167894000Y-124028200D03*
X167894000Y-122478200D03*
%TD*%
D18*
%TO.C,R21*%
X167132000Y-145796000D03*
X165482000Y-145796000D03*
%TD*%
D20*
%TO.C,SW5*%
X196070000Y-123660000D03*
X200170000Y-123660000D03*
X196070000Y-125260000D03*
X200170000Y-125260000D03*
%TD*%
D21*
%TO.C,C8*%
X191275000Y-151765000D03*
X189725000Y-151765000D03*
%TD*%
M02*
